<?xml version="1.0" standalone="no"?>
<!DOCTYPE svg PUBLIC "-//W3C//DTD SVG 20010904//EN"
 "http://www.w3.org/TR/2001/REC-SVG-20010904/DTD/svg10.dtd">
<svg version="1.0" xmlns="http://www.w3.org/2000/svg"
 width="1155.000000pt" height="1155.000000pt" viewBox="0 0 1155.000000 1155.000000"
 preserveAspectRatio="xMidYMid meet">
<metadata>
Created by potrace 1.11, written by Peter Selinger 2001-2013
</metadata>
<g transform="translate(0.000000,1155.000000) scale(0.100000,-0.100000)"
fill="#000000" stroke="none">
<path d="M2502 9660 c7 -11 19 -20 26 -20 7 0 11 -4 8 -8 -3 -5 8 -23 24 -40
16 -18 26 -32 23 -32 -3 0 0 -7 7 -15 7 -8 17 -12 23 -8 6 3 7 1 3 -5 -9 -14
15 -52 32 -52 7 0 11 -4 7 -10 -7 -12 12 -46 55 -100 l21 -25 -16 32 c-8 18
-15 35 -15 38 1 21 -2 25 -17 26 -15 0 -15 2 2 9 14 6 15 9 5 9 -9 1 -16 10
-17 21 -2 28 -42 82 -55 74 -7 -5 -8 -2 -3 5 9 16 -34 63 -52 57 -6 -3 -10 0
-8 7 3 7 -11 22 -30 35 -33 21 -35 21 -23 2z m108 -88 c0 -1 -9 2 -20 8 -11 6
-20 15 -20 20 0 6 9 2 20 -7 11 -10 20 -19 20 -21z"/>
<path d="M2730 9530 c0 -5 5 -10 10 -10 7 0 7 -6 0 -20 -7 -13 -7 -20 0 -20 5
0 9 -8 8 -17 -1 -10 0 -34 0 -53 2 -31 5 -36 30 -38 23 -1 24 0 10 9 -10 5
-18 15 -18 22 0 7 4 6 10 -3 13 -20 12 -9 -1 46 -6 24 -16 44 -21 44 -5 0 -8
6 -7 13 3 23 -1 37 -11 37 -5 0 -10 -4 -10 -10z m38 -101 c-3 -8 -7 -3 -11 10
-4 17 -3 21 5 13 5 -5 8 -16 6 -23z"/>
<path d="M2535 9485 c4 -11 7 -24 8 -30 1 -5 5 -12 8 -15 3 -3 16 -26 27 -52
11 -27 25 -48 30 -48 5 0 14 -12 20 -26 7 -15 17 -22 24 -18 6 4 9 3 5 -2 -3
-5 1 -18 9 -28 12 -16 16 -17 31 -5 10 7 15 9 11 5 -4 -5 0 -15 10 -23 15 -13
15 -13 -5 -3 -14 6 -23 7 -23 1 0 -5 9 -12 19 -16 10 -3 32 -18 47 -33 16 -15
26 -23 22 -19 -3 5 0 20 8 35 7 14 11 29 7 32 -3 3 -8 -1 -10 -8 -3 -6 -9 -10
-14 -7 -5 4 -6 -1 -3 -9 11 -29 -5 -16 -32 24 -16 24 -33 39 -40 36 -7 -3 -16
0 -20 6 -4 7 -3 8 4 4 7 -4 12 -1 12 9 0 9 -4 13 -10 10 -5 -3 -10 1 -10 10 0
11 -5 15 -16 11 -10 -4 -13 -2 -8 6 4 6 0 16 -8 22 -8 6 -20 21 -27 34 -7 12
-17 20 -23 16 -6 -4 -8 -3 -4 4 3 6 -1 18 -10 26 -8 9 -12 16 -7 16 4 0 3 4
-3 8 -6 4 -16 16 -23 27 l-13 20 7 -20z"/>
<path d="M4405 9469 c-3 -4 2 -6 10 -5 21 3 28 13 10 13 -9 0 -18 -4 -20 -8z"/>
<path d="M4556 9392 c-3 -5 1 -9 9 -9 8 0 12 4 9 9 -3 4 -7 8 -9 8 -2 0 -6 -4
-9 -8z"/>
<path d="M5986 9392 c-3 -5 1 -9 9 -9 8 0 12 4 9 9 -3 4 -7 8 -9 8 -2 0 -6 -4
-9 -8z"/>
<path d="M6626 9392 c-3 -5 1 -9 9 -9 8 0 12 4 9 9 -3 4 -7 8 -9 8 -2 0 -6 -4
-9 -8z"/>
<path d="M2756 9362 c-12 -12 -5 -21 12 -16 16 5 16 5 0 -6 -22 -14 -24 -60
-3 -60 8 0 15 -4 15 -10 0 -5 -7 -7 -15 -4 -11 5 -13 2 -9 -10 3 -9 9 -16 13
-16 18 1 26 20 27 67 1 41 -3 52 -17 56 -10 3 -20 2 -23 -1z m29 -52 c3 -6 -1
-7 -9 -4 -18 7 -21 14 -7 14 6 0 13 -4 16 -10z"/>
<path d="M3576 9312 c-3 -5 1 -9 9 -9 8 0 12 4 9 9 -3 4 -7 8 -9 8 -2 0 -6 -4
-9 -8z"/>
<path d="M2639 9245 c-6 -24 -1 -49 9 -53 9 -3 10 3 3 21 -5 14 -7 28 -4 31 4
3 3 6 0 6 -4 0 -7 -2 -8 -5z"/>
<path d="M2840 9240 c-1 -8 -4 -24 -5 -35 -2 -11 -6 -29 -11 -39 -6 -15 -4
-17 7 -11 10 6 9 3 -2 -11 -17 -20 -29 -60 -32 -106 -1 -16 -8 -28 -15 -28 -7
0 -10 5 -6 12 4 7 3 8 -4 4 -9 -5 -8 -12 1 -28 9 -16 9 -22 0 -25 -10 -3 -9
-8 2 -20 16 -15 11 -38 -6 -28 -5 4 -9 -2 -9 -12 -1 -16 -2 -16 -12 2 -11 18
-15 33 -20 73 -1 6 -6 12 -11 12 -5 0 -7 7 -4 15 4 8 2 17 -3 20 -6 4 -10 -2
-11 -12 0 -11 -3 -13 -6 -5 -3 7 0 19 7 26 7 9 7 16 1 20 -5 4 -12 2 -16 -4
-3 -5 -11 -10 -18 -10 -6 0 -1 7 11 16 21 15 22 41 0 28 -6 -4 -6 1 1 14 7 14
8 23 1 27 -5 3 -10 15 -10 26 0 13 -7 19 -22 18 -13 0 -18 -3 -12 -5 6 -3 9
-16 6 -31 -4 -20 -2 -24 9 -18 11 7 12 6 2 -6 -9 -11 -10 -25 -3 -47 10 -36
10 -37 10 -53 0 -5 3 -8 8 -5 4 2 7 -10 7 -27 0 -23 6 -35 25 -44 14 -7 20
-13 13 -13 -7 0 -10 -7 -7 -15 4 -8 13 -15 21 -15 8 0 12 -4 9 -9 -3 -5 1 -14
9 -21 8 -7 12 -17 9 -24 -15 -28 39 43 56 75 15 28 16 39 7 49 -7 7 -7 10 -2
7 15 -8 38 30 24 38 -6 5 -7 11 0 18 12 16 18 84 7 94 -5 4 -6 3 -2 -4 3 -6 2
-14 -3 -17 -12 -8 -8 23 5 32 5 4 6 32 3 62 -3 30 -7 48 -9 40z m-15 -160 c-3
-5 -1 -10 6 -10 7 0 10 -3 6 -6 -9 -9 -28 6 -22 17 4 5 8 9 11 9 3 0 2 -4 -1
-10z m-7 -65 c-3 -3 -9 2 -12 12 -6 14 -5 15 5 6 7 -7 10 -15 7 -18z m-115
-40 c-3 -8 -10 -15 -15 -15 -7 0 -6 5 1 13 6 8 7 18 3 22 -4 5 -2 5 5 1 7 -4
10 -13 6 -21z m107 -30 c0 -5 -5 -3 -10 5 -5 8 -10 20 -10 25 0 6 5 3 10 -5 5
-8 10 -19 10 -25z m-15 -35 c-3 -5 -12 -10 -18 -10 -7 0 -6 4 3 10 19 12 23
12 15 0z m-25 -24 c0 -3 -4 -8 -10 -11 -5 -3 -10 -1 -10 4 0 6 5 11 10 11 6 0
10 -2 10 -4z"/>
<path d="M4386 9232 c-3 -5 1 -9 9 -9 8 0 12 4 9 9 -3 4 -7 8 -9 8 -2 0 -6 -4
-9 -8z"/>
<path d="M6146 9228 c3 -5 10 -6 15 -3 13 9 11 12 -6 12 -8 0 -12 -4 -9 -9z"/>
<path d="M6786 9228 c3 -5 10 -6 15 -3 13 9 11 12 -6 12 -8 0 -12 -4 -9 -9z"/>
<path d="M3675 9211 c-3 -5 -2 -12 3 -15 5 -3 9 1 9 9 0 17 -3 19 -12 6z"/>
<path d="M4635 9211 c-3 -5 -2 -12 3 -15 5 -3 9 1 9 9 0 17 -3 19 -12 6z"/>
<path d="M5193 9075 c0 -8 4 -12 9 -9 5 3 6 10 3 15 -9 13 -12 11 -12 -6z"/>
<path d="M3906 9068 c3 -5 10 -6 15 -3 13 9 11 12 -6 12 -8 0 -12 -4 -9 -9z"/>
<path d="M7673 9055 c0 -8 4 -12 9 -9 5 3 6 10 3 15 -9 13 -12 11 -12 -6z"/>
<path d="M5265 8989 c-3 -4 2 -6 10 -5 21 3 28 13 10 13 -9 0 -18 -4 -20 -8z"/>
<path d="M5520 8990 c-9 -6 -10 -10 -3 -10 6 0 15 5 18 10 8 12 4 12 -15 0z"/>
<path d="M2656 8897 c2 -80 1 -77 22 -78 15 0 15 -1 1 -7 -9 -4 -15 -14 -13
-22 2 -8 5 -22 7 -30 5 -24 39 -90 49 -96 5 -3 15 0 23 6 8 7 15 10 15 7 0 -3
15 7 32 24 18 16 36 29 40 29 4 0 5 9 3 19 -3 15 1 18 12 14 10 -4 14 -2 10 4
-4 6 0 13 8 17 9 3 12 12 8 22 -4 11 -2 15 4 11 6 -4 17 7 24 26 7 17 15 36
17 41 3 5 0 6 -6 2 -6 -3 -14 -2 -17 4 -9 15 -60 -41 -57 -62 2 -9 -2 -19 -7
-23 -7 -3 -8 0 -5 9 3 9 2 16 -4 16 -18 0 -21 -29 -4 -40 15 -10 14 -10 -4 -5
-15 4 -26 -2 -39 -19 l-19 -25 -16 27 c-10 15 -14 29 -10 32 4 3 -3 27 -16 54
-13 28 -24 56 -24 64 0 8 -6 12 -14 9 -10 -4 -13 -1 -10 7 3 8 1 16 -3 19 -5
3 -8 -22 -7 -56z m23 -39 c-5 -10 -12 -18 -15 -18 -2 0 -1 8 4 18 5 9 7 24 5
32 -4 13 -3 13 6 1 6 -10 6 -21 0 -33z m208 2 c-1 -11 -5 -20 -9 -20 -10 0
-10 4 -2 24 8 22 13 20 11 -4z m-177 -64 c0 -2 -7 -7 -16 -10 -8 -3 -12 -2 -9
4 6 10 25 14 25 6z m-5 -26 c-3 -5 1 -10 9 -10 8 0 17 -4 20 -9 4 -5 -4 -7
-16 -3 -16 4 -19 2 -13 -8 5 -8 4 -11 -3 -7 -5 4 -9 15 -7 25 5 23 4 22 11 22
3 0 2 -4 -1 -10z m96 -43 c-10 -9 -11 -8 -5 6 3 10 9 15 12 12 3 -3 0 -11 -7
-18z m-35 -12 c-3 -23 -12 -26 -13 -5 -1 11 2 20 7 20 4 0 7 -7 6 -15z"/>
<path d="M4553 8915 c0 -8 4 -12 9 -9 5 3 6 10 3 15 -9 13 -12 11 -12 -6z"/>
<path d="M2910 8910 c-8 -5 -12 -11 -9 -14 2 -3 11 -1 19 4 8 5 12 11 9 14 -2
3 -11 1 -19 -4z"/>
<path d="M3916 8908 c3 -5 10 -6 15 -3 13 9 11 12 -6 12 -8 0 -12 -4 -9 -9z"/>
<path d="M5355 8911 c-3 -5 -2 -12 3 -15 5 -3 9 1 9 9 0 17 -3 19 -12 6z"/>
<path d="M5833 8905 c0 -8 4 -12 9 -9 5 3 6 10 3 15 -9 13 -12 11 -12 -6z"/>
<path d="M6155 8911 c-3 -5 -2 -12 3 -15 5 -3 9 1 9 9 0 17 -3 19 -12 6z"/>
<path d="M6611 8854 c-12 -9 -28 -13 -36 -10 -8 3 -14 0 -12 -7 1 -6 -8 -13
-20 -15 -13 -2 -23 -8 -23 -13 0 -5 -9 -9 -19 -9 -11 0 -21 -3 -23 -7 -4 -11
-129 -69 -140 -65 -4 1 -8 -3 -8 -9 0 -5 -4 -7 -10 -4 -5 3 -10 1 -10 -4 0 -6
-6 -11 -13 -11 -7 0 -31 -9 -54 -19 -22 -11 -46 -21 -54 -23 -8 -2 -16 -6 -19
-10 -3 -3 -14 -8 -25 -10 -11 -1 -22 -5 -25 -8 -11 -12 -144 -59 -151 -54 -5
3 -9 1 -9 -4 0 -10 -139 -58 -157 -54 -7 2 -13 -1 -13 -6 0 -9 -31 -21 -75
-29 -11 -2 -31 -7 -45 -12 -42 -16 -154 -49 -180 -55 -14 -3 -40 -9 -59 -15
-19 -6 -38 -8 -42 -5 -5 3 -9 0 -9 -5 0 -6 -3 -10 -7 -9 -5 1 -30 -3 -58 -10
-77 -19 -118 -27 -179 -36 -21 -4 -41 -8 -45 -10 -4 -3 -27 -7 -52 -10 -25 -3
-52 -7 -60 -10 -17 -6 -80 -17 -129 -22 -19 -2 -46 -6 -60 -8 -14 -3 -47 -7
-75 -11 -27 -3 -68 -8 -90 -11 -116 -14 -277 -26 -387 -27 -60 -1 -108 -4
-108 -7 0 -3 -72 -5 -160 -5 -88 0 -160 4 -160 9 0 4 -6 4 -12 -1 -7 -5 -24
-8 -38 -7 -36 3 -247 15 -302 17 -27 1 -48 4 -48 7 0 3 -24 5 -53 6 -50 1
-171 12 -212 20 -26 5 -71 12 -115 19 -19 2 -46 7 -60 9 -14 3 -37 7 -53 10
-15 3 -37 8 -48 11 -20 7 -21 4 -16 -36 3 -24 9 -53 13 -63 5 -14 4 -17 -4
-12 -8 4 -12 0 -12 -11 0 -14 -2 -15 -9 -5 -7 11 -14 11 -42 -2 -43 -19 -69
-40 -69 -55 0 -7 -5 -9 -10 -6 -6 3 -13 -1 -16 -9 -3 -8 -14 -18 -25 -21 -11
-4 -17 -11 -14 -16 4 -5 1 -9 -5 -9 -6 0 -8 -4 -5 -10 3 -5 2 -10 -4 -10 -5 0
-8 -12 -5 -27 3 -20 2 -24 -5 -13 -5 8 -7 18 -5 22 3 4 -6 13 -20 19 -16 8
-23 18 -21 31 2 10 -2 21 -10 25 -8 3 -13 8 -10 12 2 4 -9 27 -26 52 -16 24
-29 40 -30 34 0 -5 -4 -1 -8 10 -10 24 -88 68 -96 54 -4 -5 -1 -9 5 -9 6 0 9
-4 5 -9 -3 -5 2 -16 10 -24 17 -18 20 -31 4 -21 -6 3 -3 -9 6 -27 17 -31 18
-32 31 -14 17 24 18 12 1 -15 -10 -17 -9 -22 3 -30 8 -5 11 -10 5 -10 -5 0 -3
-5 5 -10 8 -5 15 -13 16 -17 2 -18 17 -43 25 -43 6 0 5 9 -2 21 -12 24 3 50
16 28 6 -8 4 -10 -5 -4 -10 6 -12 4 -6 -11 7 -18 14 -40 15 -56 1 -4 9 -6 19
-6 9 0 26 -3 36 -7 15 -6 17 -5 11 5 -6 9 -4 11 4 5 22 -13 -4 -28 -28 -16
-26 15 -27 7 -1 -19 22 -22 35 -26 24 -7 -5 7 0 6 11 -3 17 -14 18 -13 12 4
-6 16 -5 17 8 6 14 -12 19 -7 16 13 -1 5 3 6 9 2 21 -13 132 77 124 100 -3 7
0 16 7 21 8 4 10 3 5 -4 -4 -7 -2 -12 5 -12 7 0 9 10 7 25 -3 14 -1 28 5 32 5
3 7 2 4 -3 -3 -6 -2 -16 4 -24 7 -13 9 -12 9 3 0 9 4 17 10 17 5 0 9 3 7 8 -1
4 2 8 7 10 6 1 11 -3 12 -10 2 -7 6 -26 9 -43 5 -28 33 -162 40 -195 2 -8 10
-51 19 -94 9 -44 18 -82 20 -85 2 -3 7 -22 10 -41 6 -37 10 -59 20 -100 12
-52 18 -86 19 -112 1 -16 6 -28 10 -28 4 0 7 -6 6 -12 -2 -7 3 -31 9 -52 6
-22 9 -43 6 -48 -3 -4 0 -8 6 -8 7 0 10 -6 8 -12 -3 -7 1 -32 8 -55 7 -24 11
-43 8 -43 -3 0 0 -8 5 -19 6 -10 13 -31 16 -47 2 -16 7 -40 11 -54 13 -58 10
-75 -13 -73 -13 2 -23 -1 -23 -5 0 -5 -6 -9 -12 -9 -51 -2 -203 -29 -220 -39
-6 -4 -8 -3 -5 3 4 6 -11 15 -32 22 -50 15 -56 14 -41 -4 7 -8 17 -12 24 -8 6
3 7 2 3 -2 -12 -14 -37 -15 -34 -2 1 7 -8 11 -20 11 -13 -1 -20 3 -17 8 4 6
-7 7 -27 3 -19 -3 -40 -7 -47 -7 -7 -1 -11 -7 -8 -14 3 -8 -4 -11 -20 -9 -21
2 -22 0 -12 -13 11 -13 11 -14 0 -8 -8 5 -21 1 -33 -10 -18 -16 -19 -16 -20 4
-2 30 -6 61 -9 65 -8 10 -3 68 7 71 7 3 10 -1 7 -9 -4 -10 0 -12 16 -8 13 4
26 0 31 -8 7 -11 9 -11 9 3 0 14 7 17 30 14 16 -2 27 1 24 5 -3 5 0 9 6 9 6 0
8 5 5 10 -3 6 -2 10 4 10 5 0 12 -6 14 -12 3 -8 6 -5 6 5 1 10 5 16 10 12 9
-5 56 36 91 80 13 17 13 18 0 11 -8 -4 -7 -1 3 7 17 14 17 15 0 22 -10 4 -33
11 -51 15 -27 7 -32 5 -28 -6 3 -7 1 -16 -5 -19 -5 -4 -9 -3 -8 2 4 25 -2 31
-28 24 -20 -6 -27 -13 -25 -26 3 -17 2 -17 -13 -1 -18 18 -30 21 -20 6 3 -5 2
-10 -4 -10 -16 0 -52 -43 -47 -57 3 -7 -1 -10 -10 -6 -20 7 -18 -14 4 -26 9
-6 12 -11 7 -11 -6 0 -17 6 -24 13 -11 10 -13 9 -8 -5 3 -10 -3 -23 -16 -35
-22 -18 -22 -18 -4 3 9 11 15 23 12 26 -3 3 -7 29 -7 57 -1 28 -6 51 -11 51
-4 0 -7 -25 -6 -55 1 -30 -1 -58 -6 -62 -4 -5 -6 -1 -3 7 2 8 -5 24 -16 35
-32 31 -96 68 -96 55 0 -7 -6 -5 -16 4 -17 18 -39 22 -29 6 3 -5 1 -10 -4 -10
-6 0 -11 4 -11 9 0 21 -90 -15 -98 -39 -3 -7 0 -10 7 -6 6 4 11 1 11 -7 0 -17
26 -30 43 -21 7 3 3 -2 -7 -10 -18 -14 -18 -16 -3 -16 10 0 20 -6 23 -13 5
-13 10 -15 53 -19 11 -1 18 -5 15 -9 -2 -4 3 -10 12 -13 10 -4 13 -2 9 7 -4 6
-1 5 7 -4 15 -18 48 -21 48 -5 0 6 5 4 11 -4 8 -12 10 -10 5 10 l-5 25 17 -23
c13 -16 21 -19 28 -12 8 8 13 7 17 -4 4 -9 1 -16 -5 -16 -7 0 -7 -4 -1 -12 5
-7 9 -26 9 -43 -1 -16 4 -33 9 -37 6 -5 5 -8 -3 -8 -7 0 -10 -4 -7 -10 10 -16
-12 -12 -29 6 -9 8 -16 12 -16 8 0 -3 -6 -1 -13 5 -8 6 -17 8 -21 4 -4 -4 -11
-1 -16 7 -6 8 -10 10 -10 4 0 -6 -12 -10 -27 -8 -32 3 -112 -31 -120 -51 -3
-8 -9 -12 -14 -9 -5 3 -9 1 -9 -5 0 -9 -65 -28 -82 -23 -4 1 2 -22 14 -51 11
-28 23 -62 26 -74 2 -13 9 -23 14 -23 6 0 8 -11 6 -25 -3 -13 -1 -23 4 -22 11
2 48 -89 40 -97 -3 -4 -1 -6 5 -6 10 0 36 -68 36 -95 0 -8 4 -12 9 -9 4 3 8 0
8 -5 0 -16 2 -23 16 -50 7 -14 11 -28 8 -33 -3 -4 -1 -8 4 -8 5 0 16 -18 25
-40 16 -42 15 -44 -30 -43 -7 1 -10 -4 -6 -10 4 -6 -4 -8 -20 -5 -15 3 -24 1
-21 -3 3 -5 -1 -9 -8 -10 -7 0 -21 -2 -31 -5 -9 -2 -23 -5 -30 -7 -6 -1 -18
-6 -24 -10 -7 -5 -17 -6 -22 -2 -5 3 -12 1 -16 -5 -4 -6 -10 -8 -15 -5 -5 3
-11 1 -15 -5 -3 -5 -13 -10 -21 -10 -12 0 -12 4 -4 20 6 11 9 20 8 21 -82 22
-158 8 -207 -37 -14 -13 -33 -24 -41 -24 -13 0 -13 -1 0 -10 8 -5 10 -10 4
-10 -7 0 -14 -9 -17 -20 -5 -18 -29 -30 -25 -12 1 4 -8 29 -20 55 -25 56 -27
71 -9 64 20 -7 84 30 122 71 33 35 85 128 85 151 0 18 -98 13 -133 -6 -18 -9
-36 -16 -40 -15 -5 1 -6 -2 -2 -8 3 -5 -1 -13 -9 -16 -9 -3 -16 -12 -16 -20 0
-8 -4 -14 -9 -14 -4 0 -14 -21 -21 -46 -8 -29 -16 -41 -21 -33 -4 7 -5 17 -2
23 3 5 1 6 -5 2 -8 -4 -13 1 -13 13 -1 12 -2 27 -3 34 -1 6 -5 15 -10 18 -4 4
-9 21 -11 39 -2 29 0 31 21 27 13 -2 24 0 24 4 0 5 7 9 15 9 20 0 76 35 68 43
-3 4 1 7 10 7 10 0 17 3 17 8 0 4 15 31 34 60 19 28 32 52 29 52 -3 0 0 6 6
14 9 11 9 16 0 21 -19 12 -69 13 -108 3 -20 -6 -36 -9 -36 -7 -1 15 -75 -84
-86 -113 -15 -42 -23 -39 -34 11 -5 26 -4 32 5 26 9 -5 11 -4 6 4 -4 6 -11 9
-16 6 -4 -2 -10 6 -12 20 -4 19 1 26 23 35 16 7 42 25 58 40 16 16 32 27 35
24 3 -2 4 -1 1 2 -2 4 4 19 14 33 30 42 65 115 63 129 -2 6 2 12 8 12 6 0 8 5
5 10 -3 6 -2 10 3 10 5 0 9 7 9 15 0 15 -39 17 -53 2 -4 -4 -14 -7 -22 -7 -13
0 -134 -114 -121 -115 6 -1 -33 -85 -40 -85 -4 0 -6 18 -6 40 0 22 -2 40 -6
40 -4 0 -7 12 -7 28 0 20 13 39 49 73 27 25 49 49 49 53 0 3 11 23 24 44 28
45 71 160 63 168 -13 13 -59 -8 -91 -41 -31 -32 -84 -126 -91 -163 -6 -29 -7
-28 -16 13 -17 83 -12 101 39 153 26 26 61 77 79 113 32 65 58 147 50 156 -10
9 -66 -28 -98 -66 -19 -21 -45 -62 -59 -90 -14 -28 -31 -53 -39 -56 -9 -4 -33
13 -60 41 -25 25 -66 58 -89 72 -45 25 -122 46 -122 31 0 -13 70 -101 110
-140 28 -26 126 -85 157 -95 3 -1 13 -73 18 -134 4 -44 3 -44 -13 -23 -9 12
-27 34 -39 50 -12 15 -32 39 -45 54 -53 58 -158 98 -158 60 0 -29 147 -200
173 -201 4 0 13 -5 20 -11 7 -5 26 -18 42 -28 19 -11 31 -27 32 -42 1 -13 5
-34 8 -46 7 -30 1 -29 -32 6 -52 53 -134 86 -212 82 -23 -1 -23 -1 -5 -28 23
-36 35 -51 58 -71 10 -9 31 -29 48 -44 16 -15 38 -30 49 -33 10 -4 19 -11 19
-16 0 -6 4 -8 9 -4 5 3 12 1 16 -5 3 -5 16 -10 28 -10 36 0 45 -12 60 -77 l14
-62 -41 21 c-82 42 -174 26 -232 -41 l-21 -25 42 -22 c81 -41 187 -51 241 -24
19 10 34 15 35 11 3 -31 11 -57 20 -68 6 -7 9 -13 6 -13 -3 0 1 -16 9 -35 15
-38 14 -40 -16 -25 -11 6 -29 14 -40 20 -29 15 -117 12 -148 -4 -15 -8 -40
-28 -56 -45 l-29 -30 27 -7 c14 -3 26 -10 26 -15 0 -5 11 -9 24 -9 14 0 28 -5
31 -10 4 -6 10 -8 15 -5 5 3 11 1 15 -4 9 -15 127 -6 163 13 18 9 32 12 32 6
0 -5 11 -33 25 -62 14 -28 25 -53 25 -53 0 -5 -81 4 -90 10 -5 3 -10 1 -10 -6
0 -7 -10 -9 -25 -7 -13 3 -22 2 -20 -3 3 -4 -3 -10 -14 -14 -25 -8 -101 -83
-101 -101 0 -8 0 -17 0 -21 -1 -13 94 -20 140 -10 34 7 97 43 121 69 27 28 39
27 39 -2 0 -10 7 -23 15 -30 9 -7 13 -15 11 -17 -3 -3 4 -14 14 -25 10 -11 20
-27 22 -36 4 -14 -2 -16 -39 -13 -24 1 -49 -1 -56 -6 -6 -5 -18 -9 -26 -9 -30
2 -144 -124 -128 -140 10 -10 67 -22 67 -14 0 5 10 7 21 5 26 -5 109 16 109
27 0 4 5 8 11 8 6 0 27 15 47 34 27 27 39 32 49 24 8 -6 11 -13 8 -16 -2 -3 3
-12 13 -21 10 -9 28 -30 40 -47 l22 -32 -26 -6 c-55 -14 -124 -91 -130 -146
-12 -95 -3 -117 43 -99 12 5 23 6 23 3 0 -7 60 35 86 61 11 12 24 33 28 48 4
16 14 27 24 28 9 0 12 3 6 5 -7 3 -10 13 -7 24 4 15 10 12 41 -23 21 -23 46
-50 56 -60 11 -9 17 -19 15 -21 -17 -15 -72 -35 -81 -30 -6 4 -8 3 -5 -3 3 -5
-4 -25 -16 -44 -27 -42 -30 -52 -31 -111 -1 -27 3 -48 9 -48 24 0 91 23 106
36 9 8 19 12 22 9 4 -3 5 -2 3 1 -3 3 9 27 25 52 16 25 29 52 29 59 0 20 6 16
57 -31 43 -41 45 -45 30 -61 -10 -9 -18 -26 -18 -38 -1 -12 -3 -33 -4 -47 -2
-14 0 -29 3 -35 5 -9 9 -25 14 -62 1 -7 5 -13 10 -13 5 0 7 -4 4 -8 -2 -4 -1
-14 4 -22 7 -11 12 -11 23 -2 7 7 17 9 20 5 4 -3 7 1 7 10 0 9 4 17 10 17 5 0
12 17 16 38 4 20 12 40 18 44 8 6 8 8 0 8 -6 0 -11 10 -10 23 1 12 -5 27 -14
34 -8 7 -10 13 -5 13 6 0 23 -11 39 -25 25 -22 27 -27 15 -42 -11 -15 -11 -16
1 -5 8 6 17 12 21 12 13 0 17 -55 6 -69 -9 -12 -9 -13 1 -7 8 5 12 -1 13 -21
1 -15 1 -31 0 -35 0 -5 2 -8 7 -8 4 0 13 -13 20 -30 17 -37 38 -39 47 -3 l6
27 17 -34 c9 -19 25 -43 34 -52 10 -10 18 -25 18 -33 0 -8 5 -15 11 -15 6 0 9
-7 5 -15 -3 -8 0 -14 7 -12 7 1 11 -6 11 -16 -1 -10 0 -16 3 -13 9 9 45 -43
38 -54 -3 -5 1 -10 10 -10 9 0 13 -4 10 -10 -3 -5 -3 -10 2 -10 7 0 38 -47 45
-68 1 -4 10 -16 21 -27 10 -11 31 -40 45 -65 14 -25 30 -46 34 -48 4 -2 8 -9
8 -17 0 -7 7 -18 15 -25 8 -7 13 -16 10 -20 -3 -4 2 -10 10 -14 8 -3 15 -10
15 -16 0 -5 7 -18 15 -27 8 -10 15 -22 14 -27 0 -5 3 -12 8 -15 10 -7 93 -128
93 -136 0 -3 5 -11 10 -18 34 -40 90 -138 85 -147 -3 -5 0 -7 8 -4 8 3 17 -3
20 -13 8 -22 40 -77 57 -98 7 -8 9 -15 5 -15 -4 0 -2 -7 5 -15 7 -8 9 -15 5
-15 -5 0 -1 -8 8 -17 8 -10 16 -21 16 -25 1 -8 2 -12 6 -25 1 -5 11 -30 23
-56 12 -27 20 -53 16 -58 -3 -5 -2 -9 3 -9 4 0 14 -15 22 -32 7 -18 20 -48 28
-67 8 -18 16 -39 17 -45 1 -6 4 -15 7 -21 4 -5 23 -50 44 -100 20 -49 44 -105
52 -123 8 -18 11 -37 7 -44 -5 -7 -3 -8 6 -3 10 6 12 4 7 -8 -3 -9 -2 -17 2
-19 7 -3 79 -167 85 -193 1 -5 4 -14 8 -20 3 -5 20 -46 38 -90 18 -44 41 -99
51 -122 10 -24 19 -47 19 -53 0 -6 4 -18 10 -28 24 -42 59 -135 54 -143 -3 -5
-2 -9 3 -9 4 0 13 -12 20 -27 12 -28 35 -84 38 -93 3 -10 25 -61 43 -103 11
-23 27 -64 37 -90 10 -26 21 -49 25 -52 7 -4 115 -13 255 -21 55 -3 109 -7
120 -9 11 -2 23 -4 26 -4 4 -1 12 -14 19 -31 7 -16 16 -30 21 -30 5 0 8 -3 7
-7 -1 -5 9 -26 23 -48 53 -84 70 -115 65 -115 -3 0 4 -12 17 -26 12 -14 20
-28 19 -31 -2 -3 0 -9 5 -12 8 -6 47 -74 68 -118 15 -33 25 -34 96 -4 36 15
70 26 77 23 7 -2 12 1 12 6 0 5 20 15 45 22 25 7 48 17 51 21 3 5 11 9 19 9 8
0 24 4 37 9 13 5 28 10 33 12 6 1 21 8 34 15 14 7 28 11 33 8 4 -3 8 0 8 5 0
6 8 11 18 11 10 0 26 6 37 14 11 7 30 12 42 11 12 -1 20 2 17 6 -3 6 15 16 46
24 5 2 18 7 80 32 19 8 43 16 54 18 10 3 24 9 32 16 8 6 14 9 14 6 0 -4 20 2
44 13 24 10 47 16 50 13 3 -4 6 -1 6 5 0 7 6 12 13 12 6 0 24 6 39 14 20 10
29 11 39 2 8 -7 10 -7 6 0 -4 6 5 16 18 22 17 8 25 8 25 1 0 -6 5 -7 10 -4 6
4 7 11 4 17 -5 7 -1 9 9 5 10 -4 17 -2 17 4 0 6 7 9 15 5 8 -3 15 -1 15 5 0 6
5 7 10 4 6 -3 10 -1 10 4 0 6 3 10 8 9 4 -1 20 4 35 10 16 7 33 9 39 6 7 -4 8
-2 4 4 -5 8 0 12 13 12 12 0 21 5 21 11 0 5 4 8 8 5 4 -2 26 4 49 14 23 10 44
16 47 12 3 -3 6 1 6 8 0 7 3 10 7 7 3 -4 17 0 30 8 13 9 23 13 23 11 0 -3 15
1 34 9 18 8 36 11 40 8 3 -4 6 -2 6 3 0 14 67 37 81 28 7 -4 9 -3 6 3 -4 6 0
13 7 16 8 3 17 1 20 -6 2 -7 5 -4 5 7 1 13 6 17 21 13 11 -3 20 -2 20 3 0 4
15 10 33 14 17 3 43 8 57 10 14 3 46 11 72 19 33 10 46 11 41 4 -5 -9 -2 -8 8
0 8 7 35 17 59 23 67 16 75 18 75 20 0 3 51 13 72 14 11 1 19 4 17 7 -3 5 78
31 171 55 29 8 38 10 55 17 8 3 42 15 75 27 33 11 67 23 75 27 8 3 22 7 30 9
8 2 54 19 103 38 48 19 87 32 87 30 0 -2 15 5 34 15 26 15 36 17 46 8 9 -9 11
-8 8 3 -2 8 3 14 10 13 6 -2 12 2 12 7 0 6 7 10 16 10 9 0 28 6 42 14 15 7 47
23 72 34 25 10 71 32 104 47 32 16 64 28 72 28 7 0 16 7 19 15 3 8 12 11 20 8
8 -3 15 -1 15 4 0 5 19 19 43 31 23 12 43 22 44 23 2 2 -13 40 -33 87 -20 46
-36 90 -37 97 0 6 -5 12 -11 12 -6 0 -7 3 0 10 5 5 61 12 124 15 63 3 123 8
133 11 10 3 17 0 17 -8 0 -9 3 -10 8 -2 4 7 28 11 55 10 26 0 47 1 47 4 0 3
20 5 45 5 25 0 45 2 45 5 0 3 24 5 53 5 28 0 59 3 68 7 24 11 40 -6 36 -40 -2
-18 -6 -35 -10 -38 -3 -3 -3 -16 -1 -29 5 -30 -10 -39 -63 -36 -49 2 -87 -14
-79 -34 3 -8 0 -16 -7 -19 -9 -3 -8 -5 1 -5 7 -1 10 -6 7 -12 -7 -10 34 -79
48 -79 4 0 7 -6 7 -13 0 -13 -41 -31 -90 -41 -14 -3 -36 -8 -50 -12 -47 -12
-194 -5 -220 11 -6 3 -10 2 -10 -3 0 -5 -17 -8 -37 -6 -27 2 -33 0 -23 -7 11
-8 12 -12 3 -15 -7 -3 -9 -12 -6 -21 4 -10 2 -14 -5 -9 -6 3 -14 1 -18 -5 -4
-7 -3 -9 4 -5 15 9 30 -18 34 -61 1 -7 8 -15 15 -17 8 -3 11 -11 8 -16 -4 -6
-3 -10 2 -9 13 3 43 -12 39 -20 -3 -4 3 -7 12 -8 42 -3 88 -16 94 -26 6 -9 8
-8 8 1 0 7 4 10 10 7 5 -3 26 -8 46 -11 58 -7 97 -14 106 -20 4 -3 8 1 8 8 0
8 3 9 8 3 7 -10 15 -11 114 -17 32 -2 58 -6 58 -10 0 -4 11 -3 24 2 13 5 26 6
30 3 8 -9 148 -11 177 -2 17 4 32 3 39 -4 10 -9 11 -9 7 -1 -4 7 0 28 8 47 10
25 11 38 4 42 -6 4 -8 13 -5 21 3 8 1 14 -5 14 -6 0 -9 7 -5 15 3 8 1 15 -4
15 -13 0 -40 59 -30 65 5 3 7 12 4 20 -4 10 3 13 30 11 19 -1 37 -4 40 -6 2
-3 52 -4 111 -4 82 1 110 5 124 18 10 9 20 15 22 14 2 -2 1 1 -3 6 -4 5 0 16
10 23 9 8 12 12 5 9 -6 -4 -14 -2 -18 4 -3 5 0 10 7 10 8 0 6 5 -4 11 -18 10
-24 34 -10 42 4 2 2 2 -5 1 -17 -4 -26 13 -11 19 8 3 6 6 -4 6 -10 1 -18 6
-18 12 0 5 6 7 13 3 9 -6 9 -5 0 8 -7 8 -10 18 -6 21 3 4 0 14 -8 23 -12 15
-11 16 11 10 21 -6 22 -5 8 4 -20 12 -25 45 -5 35 6 -4 4 0 -6 8 -11 9 -14 18
-8 21 6 4 7 14 4 23 -5 12 -3 14 7 8 10 -6 11 -4 4 6 -12 19 -16 49 -6 49 4 0
9 9 10 20 4 43 6 50 13 50 4 0 6 9 4 20 -2 11 0 18 6 15 5 -4 9 3 9 14 0 11 8
24 18 30 9 5 16 12 15 15 -7 14 -2 27 7 21 5 -3 7 0 4 9 -3 8 3 23 14 34 11
11 18 23 15 26 -3 2 2 19 10 36 9 16 11 28 6 25 -17 -11 -9 4 14 26 12 12 16
19 10 15 -7 -4 -13 -3 -13 1 0 5 6 15 13 22 7 9 8 12 0 7 -7 -4 -9 1 -6 14 3
11 8 18 12 16 3 -2 5 16 4 40 -1 24 2 44 7 44 4 0 8 10 8 23 -1 90 7 185 14
181 4 -3 8 0 8 5 0 6 -6 11 -12 11 -9 0 -8 4 2 10 12 8 12 10 1 10 -9 0 -10 4
-4 13 5 6 8 24 7 40 -3 27 10 37 19 15 4 -10 6 -10 6 0 1 7 -6 15 -14 18 -14
6 -13 8 2 21 10 8 12 12 6 8 -7 -3 -13 -4 -13 -2 0 12 33 67 40 67 4 0 13 14
19 30 5 17 15 30 20 30 6 0 13 11 17 25 3 14 10 22 15 19 5 -3 9 4 9 15 0 12
4 21 9 21 5 0 12 11 15 25 4 14 11 23 16 20 5 -3 7 1 4 9 -4 10 2 17 19 21 28
7 42 31 29 49 -11 13 -12 176 -1 176 4 0 6 8 5 18 -2 9 4 23 13 30 12 10 12
12 1 6 -13 -7 -13 -5 -1 9 7 9 10 17 7 17 -4 0 1 13 10 29 10 17 22 27 27 24
6 -3 7 -1 3 6 -5 7 3 22 21 37 15 13 24 24 19 24 -6 0 -1 6 9 14 11 8 23 12
27 10 4 -3 5 2 2 10 -3 9 -2 16 3 16 4 0 19 18 33 39 13 22 28 37 34 34 5 -3
6 -1 3 4 -4 6 0 24 8 39 8 16 18 44 21 62 6 30 15 37 39 32 5 -1 6 2 2 7 -5 4
-13 8 -18 8 -5 0 -9 3 -9 8 0 4 0 12 0 18 0 5 5 7 11 4 6 -4 5 2 -2 13 -15 24
-10 32 18 35 17 1 18 4 9 31 -6 17 -15 37 -19 44 -5 7 -4 12 2 12 6 0 11 5 11
11 0 5 -4 8 -9 5 -8 -5 -38 72 -33 87 1 4 -2 7 -7 7 -16 0 -34 59 -22 73 8 10
7 14 -4 14 -8 0 -12 -5 -9 -11 3 -6 -2 -2 -10 9 -9 11 -14 26 -11 34 3 9 3 12
-1 8 -4 -4 -19 11 -33 32 -15 22 -39 51 -54 65 -15 14 -27 31 -27 37 0 7 -3 9
-7 6 -3 -4 -16 5 -29 18 -13 14 -28 25 -34 25 -5 0 -10 6 -10 14 0 8 -7 17
-16 20 -8 3 -12 10 -9 16 3 5 2 10 -4 10 -5 0 -20 17 -32 38 -13 20 -26 39
-29 42 -4 3 -13 20 -21 38 -8 17 -17 32 -21 32 -5 0 -8 9 -8 20 0 11 -4 20
-10 20 -5 0 -10 7 -10 15 0 8 -4 15 -9 15 -5 0 -17 18 -27 40 -10 22 -22 40
-28 40 -5 0 -7 3 -3 6 3 4 -1 13 -9 21 -8 8 -11 20 -7 26 3 7 3 9 -2 5 -11
-11 -48 40 -39 54 4 7 4 10 0 6 -5 -4 -18 5 -31 20 -16 19 -20 29 -12 34 8 5
7 8 -3 8 -14 0 -50 33 -50 46 0 2 -9 14 -20 26 -22 24 -26 38 -9 38 5 0 7 5 4
10 -3 6 -2 10 2 10 5 0 10 16 11 35 2 26 -4 41 -25 62 -15 16 -35 29 -43 31
-8 2 -16 8 -18 13 -2 5 -9 9 -16 9 -15 0 -48 39 -41 49 2 5 -3 8 -11 7 -9 0
-18 8 -20 18 -1 10 -8 22 -14 26 -18 11 -64 180 -49 180 5 0 9 5 9 11 0 5 -4
7 -10 4 -9 -6 -13 7 -13 48 0 9 -4 17 -8 17 -5 0 -9 7 -9 15 0 20 -39 88 -56
98 -8 5 -11 13 -8 19 4 7 2 8 -4 4 -6 -4 -23 1 -37 10 -14 9 -25 12 -25 8 0
-5 -4 -4 -8 1 -4 6 -20 19 -35 28 -26 17 -76 87 -69 96 2 2 -3 8 -11 13 -9 4
-14 17 -12 28 2 11 1 19 -3 17 -4 -1 -9 3 -11 8 -3 6 -17 24 -33 40 -15 17
-28 36 -28 43 0 8 -5 10 -12 6 -8 -5 -9 -2 -4 12 4 10 4 16 1 12 -4 -3 -29 9
-57 28 -28 18 -64 36 -80 39 -25 6 -27 9 -16 23 12 15 11 16 -5 3 -10 -8 -40
-14 -70 -14 -29 0 -54 -3 -57 -6 -22 -27 -211 -88 -287 -93 -7 -1 -13 -6 -13
-11 0 -6 -3 -8 -6 -4 -7 7 -21 -3 -77 -58 -23 -22 -44 -39 -47 -38 -4 1 -7 -3
-7 -10 0 -7 -25 -51 -56 -99 -32 -48 -57 -92 -57 -98 0 -5 -5 -10 -11 -10 -5
0 -8 -4 -4 -9 3 -5 1 -12 -5 -16 -6 -4 -8 -10 -5 -15 3 -5 1 -11 -5 -15 -6 -4
-7 -11 -4 -17 4 -6 -1 -8 -15 -3 -13 4 -21 2 -21 -5 0 -6 4 -9 9 -5 15 9 22
-11 13 -36 -11 -30 21 -96 53 -111 23 -10 44 -53 48 -97 0 -11 5 -17 9 -15 4
3 8 -2 8 -10 0 -9 5 -16 12 -16 6 0 9 -3 5 -6 -3 -4 0 -13 8 -21 8 -8 20 -22
27 -31 16 -22 74 -63 113 -82 17 -7 40 -25 52 -39 15 -17 31 -24 55 -23 40 1
59 5 76 15 8 6 12 1 13 -12 1 -12 2 -24 3 -28 1 -5 6 -24 10 -43 4 -19 16 -54
27 -77 10 -24 19 -49 19 -57 0 -7 7 -19 15 -26 8 -7 13 -16 10 -20 -3 -5 -2
-10 2 -12 17 -7 54 -70 58 -98 2 -16 6 -34 9 -39 4 -5 0 -12 -6 -14 -10 -4
-10 -6 0 -6 6 -1 12 -11 12 -23 0 -30 22 -91 39 -112 7 -9 10 -16 5 -16 -5 0
-4 -4 1 -8 13 -9 40 -61 34 -65 -2 -2 -33 -18 -69 -34 -76 -36 -146 -52 -134
-31 6 11 5 11 -8 0 -16 -13 -98 -25 -98 -13 0 3 9 14 20 24 11 9 21 25 21 34
1 10 2 25 3 33 2 22 -36 58 -56 54 -10 -1 -20 1 -23 6 -4 6 -13 6 -23 1 -16
-9 -44 -19 -60 -22 -4 0 -16 -6 -27 -12 -11 -6 -22 -12 -25 -12 -14 -4 -67
-26 -84 -36 -13 -8 -16 -8 -11 1 4 7 -3 5 -16 -3 -18 -12 -38 -14 -84 -9 -33
4 -60 12 -60 17 0 6 -4 16 -8 23 -5 6 -6 16 -3 21 4 5 2 11 -2 13 -8 3 -67
149 -77 188 -2 8 -4 16 -5 18 -2 1 -3 5 -5 10 -1 4 -7 20 -13 35 -7 16 -12 34
-12 41 0 7 -3 16 -7 20 -6 5 -27 59 -37 91 -2 6 -6 18 -11 27 -4 10 -8 29 -9
42 0 13 -4 22 -8 19 -7 -4 -12 21 -11 54 1 7 -3 10 -8 7 -5 -3 -9 3 -9 14 0
10 -3 22 -7 26 -4 3 -8 12 -9 19 -1 7 -14 48 -29 92 -15 44 -28 85 -29 90 -15
56 -20 71 -27 80 -4 6 -7 12 -7 15 0 9 -14 65 -19 80 -4 8 -7 18 -8 23 -2 4
-3 8 -5 10 -2 2 -5 16 -14 54 -2 12 -10 31 -16 42 -6 12 -9 21 -6 21 2 0 -5
28 -16 63 -27 86 -48 165 -50 193 -1 12 -5 21 -9 18 -4 -2 -10 15 -14 39 -10
54 -9 50 -16 62 -4 6 -5 18 -4 28 2 9 -2 17 -8 17 -5 0 -8 2 -5 5 3 3 -3 36
-14 73 -11 37 -21 78 -24 92 -2 14 -7 32 -10 40 -3 8 -8 26 -10 40 -3 14 -7
32 -11 40 -3 8 -8 26 -10 40 -2 14 -9 38 -15 53 -6 15 -8 30 -4 34 3 3 1 12
-5 20 -6 7 -8 13 -4 13 4 0 3 6 -3 13 -5 6 -12 30 -16 52 -3 22 -12 65 -20 95
-8 30 -19 80 -25 110 -6 30 -13 64 -16 75 -25 109 -34 158 -29 166 3 5 0 9 -6
9 -7 0 -9 8 -5 21 4 12 3 19 -2 16 -5 -3 -9 2 -9 11 -1 24 -13 93 -21 117 -3
11 -7 29 -8 40 -1 11 -5 31 -9 45 -4 14 -9 43 -12 65 -10 79 -23 147 -28 152
-1 1 -12 -5 -25 -13z m-4138 -629 c-3 -9 -8 -14 -10 -11 -3 3 -2 9 2 15 9 16
15 13 8 -4z m-3 -35 c0 -5 -5 -10 -11 -10 -5 0 -7 5 -4 10 3 6 8 10 11 10 2 0
4 -4 4 -10z m340 -20 c0 -5 -2 -10 -4 -10 -3 0 -8 5 -11 10 -3 6 -1 10 4 10 6
0 11 -4 11 -10z m-288 -14 c6 4 5 -2 -1 -15 -13 -24 -17 -25 -27 -9 -5 7 -3 8
6 3 9 -5 11 -1 6 16 -3 13 -3 18 0 11 3 -6 10 -9 16 -6z m268 -6 c0 -5 -4 -10
-10 -10 -5 0 -10 5 -10 10 0 6 5 10 10 10 6 0 10 -4 10 -10z m-24 -35 c1 -9
-4 -11 -14 -7 -10 4 -12 7 -4 10 7 2 9 9 5 15 -3 7 -2 8 2 4 5 -4 10 -14 11
-22z m-205 -12 c13 -16 12 -17 -3 -4 -10 7 -18 15 -18 17 0 8 8 3 21 -13z
m183 -14 c-4 -8 1 -9 17 -5 20 6 21 5 6 -4 -19 -12 -41 -4 -32 11 4 5 8 9 11
9 3 0 2 -5 -2 -11z m-31 -24 c-3 -9 -8 -14 -10 -11 -3 3 -2 9 2 15 9 16 15 13
8 -4z m-26 -10 c0 -8 -4 -12 -9 -9 -5 3 -6 10 -3 15 9 13 12 11 12 -6z m29
-23 c-17 -16 -18 -16 -5 5 7 12 15 20 18 17 3 -2 -3 -12 -13 -22z m-114 4 c7
4 8 2 4 -5 -9 -13 -26 -5 -25 12 0 9 2 8 6 -1 2 -6 10 -9 15 -6z m174 -815 c0
-10 -5 -18 -11 -18 -5 0 -10 10 -10 22 0 13 5 21 10 18 6 -2 11 -12 11 -22z
m-94 1 c3 -11 0 -19 -7 -19 -7 0 -10 8 -7 19 2 10 6 18 7 18 1 0 5 -8 7 -18z
m-384 -27 c-6 -14 -13 -23 -15 -21 -5 5 15 46 22 46 3 0 -1 -11 -7 -25z m72
15 c0 -5 -5 -10 -11 -10 -5 0 -7 5 -4 10 3 6 8 10 11 10 2 0 4 -4 4 -10z m270
0 c8 -5 11 -10 5 -10 -5 0 -17 5 -25 10 -8 5 -10 10 -5 10 6 0 17 -5 25 -10z
m-308 -7 c-6 -2 -9 -10 -6 -15 4 -7 2 -8 -5 -4 -13 9 -5 26 12 25 9 0 8 -2 -1
-6z m80 -15 c-9 -9 -15 -9 -24 1 -11 10 -10 11 5 6 10 -5 17 -2 17 6 0 7 3 9
7 6 4 -4 1 -13 -5 -19z m318 2 c0 -5 -4 -10 -10 -10 -5 0 -10 5 -10 10 0 6 5
10 10 10 6 0 10 -4 10 -10z m-366 -22 c-5 -7 -2 -9 9 -5 10 4 14 2 11 -7 -7
-18 -32 -16 -29 3 5 22 4 21 11 21 3 0 2 -5 -2 -12z m89 -5 c-3 -7 -6 -13 -8
-13 -2 0 -5 6 -8 13 -3 8 1 14 8 14 7 0 11 -6 8 -14z m-28 -2 c3 -5 2 -12 -3
-15 -5 -3 -9 1 -9 9 0 17 3 19 12 6z m222 -16 c0 -8 -4 -12 -9 -9 -4 3 -8 9
-8 15 0 5 4 9 8 9 5 0 9 -7 9 -15z m-322 -15 c3 -6 -1 -7 -9 -4 -18 7 -21 14
-7 14 6 0 13 -4 16 -10z m42 -6 c-3 -3 -12 -4 -19 -1 -8 3 -5 6 6 6 11 1 17
-2 13 -5z m93 -6 c8 2 12 2 8 -2 -3 -4 -14 -9 -25 -11 -10 -1 -16 -9 -15 -16
2 -8 0 -11 -4 -6 -4 4 -8 16 -9 27 -1 14 2 17 14 11 9 -5 23 -6 31 -3z m145
-7 c3 -5 2 -12 -3 -15 -5 -3 -9 1 -9 9 0 17 3 19 12 6z m55 5 c0 -2 -8 -10
-17 -17 -16 -13 -17 -12 -4 4 13 16 21 21 21 13z m12 -123 c-6 -2 -10 -9 -7
-13 3 -5 1 -11 -4 -14 -7 -5 -8 11 -2 32 1 1 7 2 14 1 9 0 9 -2 -1 -6z m-294
-58 c-3 -3 -9 2 -12 12 -6 14 -5 15 5 6 7 -7 10 -15 7 -18z m87 6 c3 -5 2 -12
-3 -15 -5 -3 -9 1 -9 9 0 17 3 19 12 6z m-161 -29 c3 -5 -1 -9 -9 -9 -8 0 -12
4 -9 9 3 4 7 8 9 8 2 0 6 -4 9 -8z m-274 -880 c0 -5 -11 -22 -25 -38 -24 -27
-29 -39 -26 -56 0 -5 -6 -8 -14 -8 -8 0 -15 6 -15 14 0 7 -11 29 -24 49 -13
19 -22 38 -18 41 3 3 -1 6 -8 6 -7 0 -10 3 -7 7 4 3 2 12 -4 20 -9 10 -7 13 7
14 11 0 28 3 39 5 11 3 26 6 33 6 6 1 12 6 12 12 0 6 11 -6 25 -26 14 -20 25
-41 25 -46z m94 -146 c-1 -10 0 -15 4 -12 3 3 11 -2 17 -11 11 -14 9 -22 -11
-48 -12 -17 -27 -42 -32 -55 l-9 -25 -23 38 c-12 20 -26 37 -31 37 -5 0 -9 6
-9 14 0 7 -7 19 -15 26 -24 20 -18 40 13 40 15 0 33 4 40 8 22 15 57 6 56 -12z
m145 -212 c24 -40 26 -48 9 -38 -8 5 -9 2 -5 -9 3 -10 3 -17 -2 -17 -5 0 -9
-6 -8 -12 1 -47 -3 -49 -29 -21 -14 15 -41 45 -60 66 -20 20 -32 37 -27 38 33
3 69 12 82 19 9 5 17 10 18 10 0 0 10 -16 22 -36z m5402 -86 c24 1 26 -2 23
-38 -1 -22 3 -43 8 -46 7 -4 8 -2 4 4 -5 9 10 12 51 13 32 1 72 2 88 4 17 1
77 5 135 9 58 3 105 6 105 7 0 1 14 2 30 4 17 1 30 3 30 4 0 3 30 8 88 15 61
7 57 0 -67 -95 -50 -38 -95 -72 -101 -77 -38 -29 -75 -52 -75 -46 0 5 -5 3
-12 -4 -16 -16 -31 -15 -22 1 6 9 4 9 -7 1 -8 -5 -21 -10 -29 -9 -8 1 -25 -2
-38 -7 -17 -6 -21 -5 -16 5 6 9 5 9 -8 0 -8 -7 -18 -10 -21 -6 -4 3 -7 0 -7
-7 0 -7 -3 -11 -6 -7 -4 3 -19 0 -34 -8 -15 -8 -30 -12 -33 -9 -2 3 -8 -7 -11
-21 -6 -22 -9 -24 -21 -12 -8 8 -17 26 -21 41 -3 14 -10 29 -15 32 -5 3 -7 10
-4 15 4 5 2 9 -3 9 -5 0 -12 10 -16 23 -7 28 -5 24 -34 82 -14 27 -25 55 -25
62 0 7 -4 13 -9 13 -4 0 -8 8 -8 18 0 10 -6 24 -12 31 -11 11 -6 12 27 6 22
-4 52 -7 66 -7z m-5287 -84 c4 -10 2 -13 -7 -8 -6 5 2 -7 20 -24 30 -30 37
-71 9 -55 -27 15 -45 36 -39 46 3 6 1 7 -5 3 -13 -8 -53 24 -46 36 3 5 13 3
22 -4 10 -8 13 -8 9 -1 -4 6 -1 14 5 16 21 9 26 8 32 -9z m6152 -189 c-2 -63
-7 -119 -11 -125 -6 -9 -7 -18 -21 -105 -3 -22 -10 -42 -15 -43 -5 -2 -7 -7
-5 -11 3 -4 -8 -47 -24 -95 -17 -49 -27 -93 -23 -99 4 -6 0 -8 -8 -5 -10 4
-14 -3 -15 -26 -2 -77 -4 -87 -15 -80 -8 5 -8 1 0 -14 6 -12 7 -23 2 -26 -10
-7 11 -75 27 -85 12 -7 29 -75 26 -106 -1 -11 -3 -40 -5 -65 -1 -25 -7 -51
-13 -59 -8 -11 -8 -13 1 -8 7 5 9 0 6 -13 -3 -11 2 -27 12 -36 36 -36 44 -58
36 -94 -4 -19 -4 -51 0 -70 4 -19 5 -38 3 -41 -2 -4 0 -9 6 -11 5 -1 11 -18
13 -36 2 -17 7 -35 10 -39 4 -3 7 -31 6 -62 0 -56 0 -56 -17 -31 -9 13 -25 33
-34 42 -10 10 -15 18 -12 18 3 0 -1 6 -8 14 -29 30 -48 57 -48 66 0 6 -3 10
-8 10 -4 0 -18 18 -32 40 -14 22 -28 40 -31 40 -4 0 -9 8 -13 18 -7 21 -30 57
-61 95 -5 7 -16 24 -24 40 -8 15 -18 27 -23 27 -4 0 -8 5 -8 10 0 6 -12 29
-27 53 -47 73 -52 81 -65 110 -7 15 -16 27 -20 27 -4 0 -8 6 -8 14 0 7 -7 19
-15 26 -9 7 -13 20 -10 29 3 8 3 12 -1 8 -7 -7 -19 10 -46 63 -7 14 -22 41
-35 61 -12 20 -19 40 -16 43 4 3 2 6 -4 6 -9 0 -36 57 -32 69 0 2 -4 7 -10 10
-14 9 -101 179 -101 197 0 8 -4 14 -9 14 -5 0 -14 14 -20 30 -7 23 -7 29 1 24
20 -13 88 -22 88 -12 0 5 8 8 18 6 14 -2 56 14 134 54 13 6 21 2 33 -21 l15
-30 48 32 c26 17 52 36 58 42 6 5 22 17 34 25 12 8 28 20 34 25 6 6 28 21 48
35 21 14 38 28 38 33 0 4 7 7 15 7 8 0 15 5 15 10 0 6 4 10 9 10 5 0 25 16 46
34 35 33 54 41 98 45 17 1 18 -8 13 -114z"/>
<path d="M8199 5523 c-12 -16 -12 -17 2 -6 9 7 20 9 24 5 5 -4 5 -1 1 6 -9 16
-11 15 -27 -5z"/>
<path d="M8095 5450 c3 -5 8 -10 11 -10 2 0 4 5 4 10 0 6 -5 10 -11 10 -5 0
-7 -4 -4 -10z"/>
<path d="M7993 5385 c0 -8 4 -12 9 -9 4 3 8 9 8 15 0 5 -4 9 -8 9 -5 0 -9 -7
-9 -15z"/>
<path d="M8233 5065 c0 -8 4 -12 9 -9 5 3 6 10 3 15 -9 13 -12 11 -12 -6z"/>
<path d="M2751 8784 c0 -11 3 -14 6 -6 3 7 2 16 -1 19 -3 4 -6 -2 -5 -13z"/>
<path d="M7913 8755 c0 -8 4 -12 9 -9 5 3 6 10 3 15 -9 13 -12 11 -12 -6z"/>
<path d="M3595 8751 c-3 -5 -2 -12 3 -15 5 -3 9 1 9 9 0 17 -3 19 -12 6z"/>
<path d="M4876 8748 c3 -5 10 -6 15 -3 13 9 11 12 -6 12 -8 0 -12 -4 -9 -9z"/>
<path d="M6956 8748 c3 -5 10 -6 15 -3 13 9 11 12 -6 12 -8 0 -12 -4 -9 -9z"/>
<path d="M2574 8733 c4 -7 3 -13 -2 -13 -6 0 -8 -9 -5 -20 3 -11 10 -20 16
-20 8 0 8 -3 0 -11 -13 -13 -6 -38 16 -57 9 -8 10 -11 4 -7 -8 3 -13 0 -13 -8
0 -8 10 -17 22 -21 18 -4 20 -8 11 -17 -14 -14 -4 -38 28 -73 11 -11 19 -24
19 -28 0 -5 5 -6 10 -3 9 6 14 -14 11 -40 -1 -5 8 1 20 15 12 14 23 24 25 23
9 -7 24 -2 24 7 0 5 -8 7 -17 4 -14 -5 -15 -4 -4 4 7 5 21 9 30 7 18 -2 55 40
47 54 -3 5 1 8 9 7 9 0 25 15 37 33 15 23 17 32 8 26 -8 -4 -5 2 8 14 12 12
23 26 23 31 3 20 5 25 13 40 7 12 6 13 -5 3 -7 -7 -21 -13 -31 -13 -10 0 -18
-4 -18 -10 0 -5 8 -7 18 -4 16 5 16 5 -1 -6 -9 -6 -23 -8 -30 -4 -6 4 -9 4 -5
-1 8 -8 -15 -35 -31 -35 -5 0 -12 -8 -15 -17 -3 -10 -19 -34 -36 -53 -21 -25
-26 -36 -17 -42 12 -8 10 -9 -15 -12 -7 0 -13 -6 -13 -13 0 -6 -4 -15 -9 -20
-5 -5 -6 -3 -2 5 5 8 -2 16 -18 22 -14 5 -26 12 -26 15 0 2 11 1 23 -4 17 -7
24 -6 24 4 0 7 -6 11 -14 8 -9 -4 -11 0 -7 11 4 11 1 16 -12 16 -12 0 -15 3
-7 8 15 10 -16 114 -33 108 -18 -7 -25 5 -13 21 9 9 8 13 0 13 -6 0 -11 5 -11
10 0 6 -10 21 -21 33 -12 12 -19 16 -15 10z m46 -103 c8 -5 11 -10 5 -10 -5 0
-17 5 -25 10 -8 5 -10 10 -5 10 6 0 17 -5 25 -10z m30 -29 c0 -6 -5 -13 -12
-17 -6 -4 -8 -3 -4 4 3 5 0 13 -6 15 -8 3 -6 6 5 6 9 1 17 -3 17 -8z m210 -27
c0 -8 -19 -13 -24 -6 -3 5 1 9 9 9 8 0 15 -2 15 -3z m-25 -24 c3 -6 -1 -7 -9
-4 -18 7 -21 14 -7 14 6 0 13 -4 16 -10z m-185 -14 c0 -3 -4 -8 -10 -11 -5 -3
-10 -1 -10 4 0 6 5 11 10 11 6 0 10 -2 10 -4z m117 -21 c0 -8 -4 -12 -9 -9 -5
3 -6 10 -3 15 9 13 12 11 12 -6z m24 -12 c-12 -20 -14 -14 -5 12 4 9 9 14 11
11 3 -2 0 -13 -6 -23z"/>
<path d="M995 8709 c50 -27 89 -56 190 -139 44 -37 96 -77 115 -90 l35 -23
-32 32 c-18 18 -33 36 -33 42 0 5 -28 38 -63 72 -65 65 -144 110 -212 121
l-40 7 40 -22z"/>
<path d="M1246 8670 c25 -44 89 -202 86 -212 -1 -4 10 -28 24 -54 14 -25 20
-42 12 -37 -35 21 -133 88 -138 93 -3 4 -21 15 -40 26 -40 22 -51 30 -110 79
-20 17 -19 14 8 -26 17 -26 51 -62 74 -80 24 -19 48 -38 54 -44 6 -6 33 -21
60 -34 27 -13 67 -32 88 -42 22 -11 42 -17 44 -14 3 3 1 5 -4 5 -5 0 -8 19 -8
42 3 79 -73 244 -140 306 l-30 27 20 -35z"/>
<path d="M5675 8601 c-3 -5 -2 -12 3 -15 5 -3 9 1 9 9 0 17 -3 19 -12 6z"/>
<path d="M7436 8592 c-3 -5 1 -9 9 -9 8 0 12 4 9 9 -3 4 -7 8 -9 8 -2 0 -6 -4
-9 -8z"/>
<path d="M8226 8588 c3 -5 10 -6 15 -3 13 9 11 12 -6 12 -8 0 -12 -4 -9 -9z"/>
<path d="M2715 8559 c-4 -6 -5 -12 -2 -15 2 -3 7 2 10 11 7 17 1 20 -8 4z"/>
<path d="M2540 8511 c0 -6 8 -15 18 -20 16 -10 16 -10 0 -11 -19 0 -14 -28 6
-42 7 -5 7 -8 -1 -8 -20 0 -15 -30 5 -31 14 0 14 -2 -3 -9 -11 -5 -14 -9 -7
-9 7 -1 11 -5 7 -10 -3 -6 3 -14 12 -20 17 -10 17 -10 -2 -11 l-20 -1 20 -9
c11 -5 14 -9 7 -9 -9 -1 -6 -13 10 -40 12 -22 26 -37 30 -35 5 3 8 0 8 -6 0
-6 7 -18 15 -27 8 -8 12 -20 8 -26 -3 -7 2 -4 13 5 10 9 32 21 48 27 15 6 26
17 23 24 -2 6 0 21 4 32 l9 20 -1 -20 c-2 -35 0 -36 32 -8 35 31 95 114 91
126 -1 4 2 7 7 7 5 0 11 7 15 15 4 11 -1 14 -16 12 -14 -3 -22 -12 -23 -25 -1
-12 -5 -25 -10 -29 -4 -5 -4 2 -1 15 9 26 7 26 -29 8 -17 -9 -22 -16 -13 -19
8 -3 6 -6 -6 -6 -26 -1 -99 -78 -92 -96 3 -8 2 -14 -2 -14 -19 3 -25 -2 -12
-11 11 -7 11 -10 2 -10 -7 0 -10 -5 -6 -12 4 -6 3 -8 -4 -4 -6 3 -9 15 -7 26
4 20 -26 45 -39 33 -3 -3 -6 -1 -6 6 0 7 6 11 14 8 18 -7 5 52 -19 89 -9 15
-12 23 -6 20 14 -9 -8 43 -26 62 -7 7 -13 17 -13 22 0 5 -9 14 -20 20 -13 7
-20 7 -20 1z m45 -61 c3 -6 -1 -7 -9 -4 -18 7 -21 14 -7 14 6 0 13 -4 16 -10z
m6 -83 c-10 -9 -11 -8 -5 6 3 10 9 15 12 12 3 -3 0 -11 -7 -18z m44 -17 c3 -6
-1 -7 -9 -4 -18 7 -21 14 -7 14 6 0 13 -4 16 -10z m160 0 c3 -6 -1 -7 -9 -4
-18 7 -21 14 -7 14 6 0 13 -4 16 -10z m39 -2 c-3 -4 -9 -8 -15 -8 -5 0 -9 4
-9 8 0 5 7 9 15 9 8 0 12 -4 9 -9z m-208 -20 c5 -7 3 -8 -6 -3 -9 5 -10 1 -6
-16 6 -20 5 -21 -4 -6 -6 9 -8 22 -5 27 8 13 12 13 21 -2z m160 0 c5 -7 3 -8
-6 -3 -9 5 -10 1 -6 -16 6 -20 5 -21 -4 -6 -6 9 -8 22 -5 27 8 13 12 13 21 -2z
m-39 -13 c0 -8 -4 -12 -9 -9 -5 3 -6 10 -3 15 9 13 12 11 12 -6z m-17 -25 c0
-5 -5 -10 -11 -10 -5 0 -7 5 -4 10 3 6 8 10 11 10 2 0 4 -4 4 -10z"/>
<path d="M5193 8425 c0 -8 4 -12 9 -9 5 3 6 10 3 15 -9 13 -12 11 -12 -6z"/>
<path d="M7113 8425 c0 -8 4 -12 9 -9 5 3 6 10 3 15 -9 13 -12 11 -12 -6z"/>
<path d="M8396 8428 c3 -5 10 -6 15 -3 13 9 11 12 -6 12 -8 0 -12 -4 -9 -9z"/>
<path d="M1439 8425 c-1 -5 -1 -14 0 -18 1 -5 4 -43 7 -85 3 -43 7 -96 9 -120
1 -23 -1 -45 -6 -48 -5 -3 -7 -10 -3 -15 10 -16 15 -61 7 -56 -5 3 -26 32 -48
64 -22 32 -43 60 -47 61 -5 2 -8 10 -8 17 0 7 -4 15 -8 17 -5 2 -27 31 -51 66
-23 34 -43 62 -46 62 -2 0 1 -17 7 -37 13 -52 79 -193 90 -193 4 0 8 -4 8 -10
0 -11 71 -79 83 -80 5 0 15 -7 23 -15 24 -23 32 -18 45 28 24 84 7 223 -41
328 -11 24 -20 40 -21 34z"/>
<path d="M2686 8383 c-6 -14 -5 -15 5 -6 7 7 10 15 7 18 -3 3 -9 -2 -12 -12z"/>
<path d="M2677 8323 c-9 -9 -9 -41 1 -46 4 -3 7 8 7 24 0 16 0 29 -1 29 0 0
-4 -3 -7 -7z"/>
<path d="M7755 8281 c-3 -5 -2 -12 3 -15 5 -3 9 1 9 9 0 17 -3 19 -12 6z"/>
<path d="M8873 8275 c0 -8 4 -12 9 -9 5 3 6 10 3 15 -9 13 -12 11 -12 -6z"/>
<path d="M1408 8268 c7 -7 12 -20 12 -29 0 -10 4 -20 9 -24 6 -3 6 7 0 27 -5
18 -9 34 -9 35 0 2 -5 3 -12 3 -9 0 -9 -3 0 -12z"/>
<path d="M7426 8272 c-3 -5 1 -9 9 -9 8 0 12 4 9 9 -3 4 -7 8 -9 8 -2 0 -6 -4
-9 -8z"/>
<path d="M1430 8195 c0 -5 5 -17 10 -25 5 -8 10 -10 10 -5 0 6 -5 17 -10 25
-5 8 -10 11 -10 5z"/>
<path d="M2638 8145 c-3 -14 -2 -27 1 -30 4 -2 8 10 9 26 3 36 -4 38 -10 4z"/>
<path d="M7195 8141 c-3 -5 -2 -12 3 -15 5 -3 9 1 9 9 0 17 -3 19 -12 6z"/>
<path d="M1593 8105 c-16 -19 -42 -70 -58 -112 -23 -59 -31 -72 -33 -53 -2 14
-8 29 -13 34 -5 6 -7 0 -4 -14 5 -28 6 -28 -41 40 -53 78 -94 111 -94 76 0
-26 58 -156 85 -192 15 -19 38 -40 51 -46 13 -6 24 -17 24 -24 0 -7 4 -15 9
-18 4 -3 6 6 3 20 -3 18 1 30 17 40 29 21 62 96 76 179 8 42 14 105 10 105 -2
0 -16 -16 -32 -35z"/>
<path d="M8235 8111 c-3 -5 -2 -12 3 -15 5 -3 9 1 9 9 0 17 -3 19 -12 6z"/>
<path d="M2627 8080 c-3 -11 -2 -22 2 -24 4 -3 8 6 9 20 2 29 -4 31 -11 4z"/>
<path d="M2376 8033 c11 -46 64 -167 77 -175 7 -4 12 -13 12 -20 1 -7 6 -12
13 -11 6 2 9 -3 6 -11 -3 -8 9 -26 30 -43 20 -15 36 -34 36 -40 0 -7 5 -13 12
-13 6 0 8 3 5 7 -7 6 40 31 54 29 4 -1 31 19 87 65 7 5 9 15 6 21 -5 7 -2 8 6
3 16 -10 83 62 76 81 -3 8 0 11 9 8 17 -7 36 28 25 46 -7 11 -12 11 -23 2 -7
-7 -17 -9 -20 -6 -8 8 -97 -44 -97 -56 0 -4 3 -10 8 -13 4 -2 1 -2 -7 0 -17 4
-53 -26 -45 -38 3 -5 -3 -9 -12 -9 -10 0 -15 -3 -12 -6 3 -3 -5 -17 -18 -31
-13 -14 -21 -29 -18 -34 3 -5 0 -9 -5 -9 -6 0 -11 5 -11 11 0 5 -4 7 -10 4
-15 -10 -32 5 -22 18 22 28 -2 68 -30 50 -7 -4 -8 -1 -4 6 5 7 14 10 22 7 12
-5 12 -2 0 22 -7 15 -21 44 -31 65 -9 20 -24 37 -31 37 -8 0 -14 6 -14 14 0 7
-8 20 -17 27 -14 12 -16 12 -9 -1 4 -9 1 -8 -7 3 -8 9 -22 17 -31 17 -13 0
-15 -6 -10 -27z m71 -58 c0 -8 -4 -12 -9 -9 -5 3 -6 10 -3 15 9 13 12 11 12
-6z m328 -43 c-3 -3 -11 0 -18 7 -9 10 -8 11 6 5 10 -3 15 -9 12 -12z m-281 0
c3 -5 -1 -9 -9 -9 -8 0 -15 4 -15 9 0 4 4 8 9 8 6 0 12 -4 15 -8z m252 -4 c4
-7 3 -8 -4 -4 -7 4 -12 2 -12 -4 0 -6 -5 -8 -11 -4 -8 4 -7 9 2 15 18 11 17
11 25 -3z m-291 -19 c-5 -16 -4 -19 5 -14 9 6 11 4 5 -4 -10 -18 -27 2 -19 22
9 25 17 21 9 -4z m325 1 c-8 -5 -19 -10 -25 -10 -5 0 -3 5 5 10 8 5 20 10 25
10 6 0 3 -5 -5 -10z m-278 -14 c7 4 8 2 4 -5 -9 -13 -26 -5 -25 12 0 9 2 8 6
-1 2 -6 10 -9 15 -6z m198 -11 c0 -2 -9 -3 -19 -2 -11 0 -18 5 -15 9 4 6 34 0
34 -7z m-215 -15 c3 -5 1 -10 -4 -10 -6 0 -11 5 -11 10 0 6 2 10 4 10 3 0 8
-4 11 -10z m255 2 c0 -4 -9 -8 -19 -8 -11 0 -17 4 -15 8 3 4 12 8 20 8 8 0 14
-4 14 -8z m-69 -49 c-11 -16 -11 -15 -5 6 4 17 3 21 -6 16 -9 -6 -11 -4 -5 4
5 9 11 9 17 3 7 -7 6 -16 -1 -29z m-144 12 c0 -8 -3 -13 -5 -10 -3 3 -11 -3
-19 -13 -11 -15 -12 -13 -2 11 13 30 26 36 26 12z m123 -25 c0 -5 -4 -10 -10
-10 -5 0 -10 5 -10 10 0 6 5 10 10 10 6 0 10 -4 10 -10z m-70 -44 c0 -2 -7 -7
-16 -10 -8 -3 -12 -2 -9 4 6 10 25 14 25 6z"/>
<path d="M1475 8000 c3 -5 8 -10 11 -10 2 0 4 5 4 10 0 6 -5 10 -11 10 -5 0
-7 -4 -4 -10z"/>
<path d="M9515 7961 c-3 -5 -2 -12 3 -15 5 -3 9 1 9 9 0 17 -3 19 -12 6z"/>
<path d="M7116 7948 c3 -5 10 -6 15 -3 13 9 11 12 -6 12 -8 0 -12 -4 -9 -9z"/>
<path d="M2597 7933 c-2 -4 -8 -26 -12 -48 -4 -22 -9 -50 -11 -63 -3 -15 -1
-21 6 -17 5 3 10 18 10 33 0 15 4 43 10 61 9 33 8 52 -3 34z"/>
<path d="M1652 7887 c-25 -27 -72 -119 -78 -154 -3 -14 -9 -34 -15 -45 -5 -10
-8 -22 -5 -27 3 -4 -2 -8 -10 -8 -8 0 -31 24 -50 53 -60 91 -164 180 -164 142
0 -6 16 -39 35 -73 37 -67 102 -138 147 -161 15 -8 30 -24 33 -37 7 -31 14
-117 9 -117 -2 0 -15 18 -29 40 -36 57 -94 119 -127 136 -29 15 -29 15 -22
-13 9 -40 72 -158 98 -185 31 -32 59 -53 79 -61 10 -4 18 -18 19 -34 0 -15 2
-32 3 -38 2 -5 3 -25 4 -44 0 -19 4 -31 8 -28 7 8 6 83 -2 108 -4 12 6 29 31
51 20 18 47 52 61 75 23 40 63 153 63 181 0 42 -79 -41 -129 -137 -31 -58 -41
-70 -41 -51 -2 34 -9 91 -15 117 -3 13 1 25 9 30 25 15 78 103 92 156 23 83
32 137 24 142 -4 2 -16 -6 -28 -18z"/>
<path d="M6976 7872 c-3 -5 1 -9 9 -9 8 0 12 4 9 9 -3 4 -7 8 -9 8 -2 0 -6 -4
-9 -8z"/>
<path d="M9216 7872 c-3 -5 1 -9 9 -9 8 0 12 4 9 9 -3 4 -7 8 -9 8 -2 0 -6 -4
-9 -8z"/>
<path d="M2545 7810 c-3 -5 -1 -10 4 -10 6 0 11 5 11 10 0 6 -2 10 -4 10 -3 0
-8 -4 -11 -10z"/>
<path d="M2315 7800 c3 -5 13 -6 23 -3 13 4 13 2 -3 -10 -17 -13 -18 -16 -5
-22 9 -3 16 -14 17 -25 3 -32 66 -131 81 -125 7 3 10 0 6 -6 -6 -11 28 -49 45
-49 5 0 11 -5 13 -10 2 -6 13 -12 25 -13 13 -1 19 -5 14 -12 -4 -5 -8 -21 -9
-35 -1 -18 1 -21 8 -11 4 8 6 20 3 28 -3 7 1 13 8 14 23 1 50 7 67 15 9 4 22
8 27 9 6 0 9 7 7 14 -1 7 2 10 7 6 16 -9 51 17 68 53 9 18 18 30 21 28 3 -3
-1 -12 -8 -21 -7 -8 -8 -15 -2 -15 10 0 26 29 23 43 -1 5 2 6 7 3 5 -3 20 6
32 19 13 14 20 25 15 25 -5 0 0 6 11 14 18 14 18 15 1 21 -9 4 -32 4 -50 1
-17 -4 -38 -7 -44 -8 -7 -1 -14 -5 -14 -10 -1 -4 -2 -12 -3 -17 0 -5 -5 -13
-10 -18 -5 -4 -7 -3 -3 2 3 6 2 17 -4 25 -7 12 -9 12 -9 -3 0 -10 -5 -15 -11
-12 -15 10 -112 -92 -103 -108 6 -9 4 -9 -8 0 -8 7 -19 9 -23 5 -5 -4 -5 -1 0
7 13 23 23 81 14 81 -5 0 -9 -11 -9 -24 0 -13 -6 -28 -13 -34 -9 -8 -13 -4
-13 18 -2 27 -8 38 -46 80 -9 10 -14 21 -11 23 2 3 -5 8 -16 12 -12 3 -21 10
-21 15 0 9 -73 40 -96 40 -8 0 -13 -4 -9 -10z m50 -20 c-3 -5 -12 -10 -18 -10
-7 0 -6 4 3 10 19 12 23 12 15 0z m64 -37 c2 -2 -1 -3 -7 -3 -6 0 -17 7 -25
15 -8 8 -18 11 -22 7 -5 -4 -5 -1 -1 6 6 11 12 10 29 -5 12 -10 24 -19 26 -20z
m-24 -34 c-3 -12 -7 -24 -11 -28 -4 -3 -4 2 0 13 5 14 3 17 -11 12 -15 -5 -15
-4 1 9 25 19 26 19 21 -6z m60 1 c3 -5 2 -10 -4 -10 -5 0 -13 5 -16 10 -3 6
-2 10 4 10 5 0 13 -4 16 -10z m278 -5 c-3 -9 -8 -14 -10 -11 -3 3 -2 9 2 15 9
16 15 13 8 -4z m-319 -16 c-4 -8 1 -9 17 -5 20 6 21 5 6 -4 -19 -12 -41 -4
-32 11 4 5 8 9 11 9 3 0 2 -5 -2 -11z m340 -5 c3 -8 2 -12 -4 -9 -6 3 -10 10
-10 16 0 14 7 11 14 -7z m26 6 c0 -5 -2 -10 -4 -10 -3 0 -8 5 -11 10 -3 6 -1
10 4 10 6 0 11 -4 11 -10z m-110 -25 c19 -22 8 -25 -12 -3 -10 10 -14 18 -9
18 5 0 14 -7 21 -15z m54 3 c-3 -5 -10 -6 -15 -3 -5 4 -9 1 -9 -6 0 -7 -3 -10
-6 -6 -9 9 3 24 20 24 8 0 13 -4 10 -9z m-74 -14 c0 -2 -7 -4 -15 -4 -8 0 -15
4 -15 10 0 5 7 7 15 4 8 -4 15 -8 15 -10z m-30 -24 c0 -5 -4 -10 -10 -10 -5 0
-10 5 -10 10 0 6 5 10 10 10 6 0 10 -4 10 -10z m46 -5 c4 -8 11 -12 18 -8 6 3
7 2 3 -2 -12 -13 -36 -15 -44 -3 -3 7 -1 8 5 4 7 -4 12 -3 12 3 0 5 -6 12 -12
14 -10 4 -10 6 0 6 7 1 15 -6 18 -14z m-176 -10 c0 -9 -41 -11 -47 -3 -3 7 -1
8 5 4 7 -4 12 -3 12 3 0 6 7 8 15 5 8 -4 15 -7 15 -9z m91 -32 c-12 -20 -14
-14 -5 12 4 9 9 14 11 11 3 -2 0 -13 -6 -23z m77 1 c2 -1 -10 -1 -25 -1 -15 0
-22 2 -15 4 6 3 9 10 5 16 -4 7 2 5 13 -3 10 -8 20 -15 22 -16z m-148 1 c19
-22 8 -25 -12 -3 -10 10 -14 18 -9 18 5 0 14 -7 21 -15z m-12 -30 c-3 -3 -9 2
-12 12 -6 14 -5 15 5 6 7 -7 10 -15 7 -18z m50 -20 c-3 -3 -9 2 -12 12 -6 14
-5 15 5 6 7 -7 10 -15 7 -18z m52 21 c0 -3 -4 -8 -10 -11 -5 -3 -10 -1 -10 4
0 6 5 11 10 11 6 0 10 -2 10 -4z"/>
<path d="M7915 7801 c-3 -5 -2 -12 3 -15 5 -3 9 1 9 9 0 17 -3 19 -12 6z"/>
<path d="M8715 7801 c-3 -5 -2 -12 3 -15 5 -3 9 1 9 9 0 17 -3 19 -12 6z"/>
<path d="M1520 7770 c-1 -8 -1 -19 0 -25 2 -5 6 -28 10 -50 l7 -40 1 35 c0 39
-14 103 -18 80z"/>
<path d="M7593 7635 c0 -8 4 -12 9 -9 5 3 6 10 3 15 -9 13 -12 11 -12 -6z"/>
<path d="M9033 7635 c0 -8 4 -12 9 -9 5 3 6 10 3 15 -9 13 -12 11 -12 -6z"/>
<path d="M9836 7632 c-3 -5 1 -9 9 -9 8 0 12 4 9 9 -3 4 -7 8 -9 8 -2 0 -6 -4
-9 -8z"/>
<path d="M7193 7605 c0 -8 4 -12 9 -9 5 3 6 10 3 15 -9 13 -12 11 -12 -6z"/>
<path d="M2665 7470 c7 -24 6 -24 -7 -6 -15 19 -15 19 -35 0 -11 -10 -28 -24
-39 -30 -10 -6 -27 -26 -37 -45 -10 -19 -16 -26 -13 -16 5 16 4 16 -22 1 -18
-11 -21 -11 -10 -2 10 8 15 18 11 21 -3 4 -1 7 5 7 7 0 11 14 11 33 -2 28 -2
29 -6 6 -5 -34 -38 -66 -49 -48 -4 8 -3 10 4 5 7 -4 12 -1 12 9 0 12 -5 15
-17 11 -10 -4 -14 -4 -10 0 4 4 0 16 -10 26 -16 18 -35 25 -30 10 1 -4 -8 -18
-19 -30 -16 -17 -24 -20 -29 -11 -5 7 -4 10 1 7 14 -8 43 28 34 43 -8 12 -83
17 -120 7 -27 -6 -62 -36 -51 -42 5 -4 14 2 20 11 6 10 11 13 11 8 0 -6 -6
-17 -12 -24 -11 -10 -10 -14 4 -22 9 -5 23 -15 30 -22 25 -23 52 -42 45 -31
-3 6 0 11 7 11 8 0 12 -7 8 -15 -3 -9 -1 -13 5 -9 6 4 13 3 15 -2 5 -15 48
-24 48 -10 0 7 6 5 13 -6 10 -12 16 -14 21 -7 4 7 12 12 17 12 6 0 7 -6 3 -12
-6 -10 -4 -10 8 0 19 15 27 6 30 -32 1 -14 6 -26 10 -26 9 0 4 42 -6 58 -3 5
17 9 44 9 27 -1 47 -4 44 -8 -3 -5 9 -3 26 2 16 6 33 15 36 20 3 5 10 6 16 3
7 -5 9 -2 6 8 -4 8 0 15 8 15 7 0 10 -5 7 -11 -6 -10 9 1 66 52 13 11 20 25
17 31 -4 7 -1 8 8 5 12 -4 16 0 16 16 0 19 -2 21 -16 10 -12 -11 -15 -11 -12
0 5 19 -52 36 -63 19 -6 -10 -9 -11 -9 -1 0 6 -7 12 -16 12 -9 0 -12 -5 -8
-12 5 -8 0 -7 -11 2 -17 14 -17 13 -10 -10z m95 -5 c19 -22 8 -25 -12 -3 -10
10 -14 18 -9 18 5 0 14 -7 21 -15z m-462 -30 c-6 -14 -15 -25 -20 -25 -5 0 -1
11 8 25 9 14 18 25 20 25 2 0 -2 -11 -8 -25z m23 2 c-10 -9 -11 -8 -5 6 3 10
9 15 12 12 3 -3 0 -11 -7 -18z m327 11 c-2 -6 -10 -13 -16 -14 -7 -1 -8 0 -2
3 5 2 8 9 4 14 -3 5 0 9 6 9 7 0 10 -5 8 -12z m116 -38 c-6 -5 -24 21 -24 34
0 6 6 1 14 -10 8 -10 12 -21 10 -24z m-414 20 c0 -5 -5 -10 -11 -10 -5 0 -7 5
-4 10 3 6 8 10 11 10 2 0 4 -4 4 -10z m324 2 c3 -5 -1 -9 -9 -9 -8 0 -12 4 -9
9 3 4 7 8 9 8 2 0 6 -4 9 -8z m49 -9 c-3 -7 -6 -13 -8 -13 -2 0 -5 6 -8 13 -3
8 1 14 8 14 7 0 11 -6 8 -14z m-273 -3 c0 -5 -5 -10 -11 -10 -5 0 -7 5 -4 10
3 6 8 10 11 10 2 0 4 -4 4 -10z m143 -11 c-8 -8 -13 -7 -18 2 -5 8 -4 10 3 5
7 -4 12 -2 12 5 0 7 3 9 7 6 4 -4 2 -12 -4 -18z m-228 -19 c0 -7 -7 -15 -15
-17 -13 -4 -13 -3 0 6 13 10 13 12 0 22 -13 9 -13 10 0 6 8 -2 15 -10 15 -17z
m315 6 c-1 -5 4 -13 12 -18 11 -8 11 -9 0 -6 -8 2 -13 7 -12 12 1 5 -4 13 -12
18 -11 8 -11 9 0 6 8 -2 13 -7 12 -12z m-350 -6 c0 -5 -4 -10 -10 -10 -5 0
-10 5 -10 10 0 6 5 10 10 10 6 0 10 -4 10 -10z m120 -5 c-7 -8 -17 -15 -23
-15 -6 0 -2 7 9 15 25 19 30 19 14 0z m135 -3 c-3 -3 -11 0 -18 7 -9 10 -8 11
6 5 10 -3 15 -9 12 -12z m71 5 c4 -3 -4 -4 -16 -2 -30 6 -40 16 -12 12 12 -2
24 -6 28 -10z m74 1 c0 -4 -4 -8 -9 -8 -6 0 -12 4 -15 8 -3 5 1 9 9 9 8 0 15
-4 15 -9z m-330 -28 c-6 -11 -13 -20 -16 -20 -2 0 0 9 6 20 6 11 13 20 16 20
2 0 0 -9 -6 -20z m79 -3 c0 -9 -2 -8 -6 1 -2 6 -10 9 -15 6 -7 -4 -8 -2 -4 5
9 13 26 5 25 -12z m147 11 c4 -7 3 -8 -4 -4 -15 9 -15 1 -2 -25 6 -10 8 -19 6
-19 -10 0 -27 41 -21 50 8 13 12 13 21 -2z m27 -11 c3 -8 -1 -14 -8 -14 -7 0
-11 6 -8 14 3 7 6 13 8 13 2 0 5 -6 8 -13z m-213 -7 c8 -5 11 -10 5 -10 -5 0
-17 5 -25 10 -8 5 -10 10 -5 10 6 0 17 -5 25 -10z m73 -5 c-3 -9 -8 -14 -10
-11 -3 3 -2 9 2 15 9 16 15 13 8 -4z m60 -2 c-7 -2 -19 -2 -25 0 -7 3 -2 5 12
5 14 0 19 -2 13 -5z"/>
<path d="M7746 7468 c3 -5 10 -6 15 -3 13 9 11 12 -6 12 -8 0 -12 -4 -9 -9z"/>
<path d="M8876 7472 c-3 -5 1 -9 9 -9 8 0 12 4 9 9 -3 4 -7 8 -9 8 -2 0 -6 -4
-9 -8z"/>
<path d="M9356 7468 c3 -5 10 -6 15 -3 13 9 11 12 -6 12 -8 0 -12 -4 -9 -9z"/>
<path d="M10230 7469 c0 -5 5 -7 10 -4 6 3 10 8 10 11 0 2 -4 4 -10 4 -5 0
-10 -5 -10 -11z"/>
<path d="M7936 7428 c3 -5 10 -6 15 -3 13 9 11 12 -6 12 -8 0 -12 -4 -9 -9z"/>
<path d="M7795 7410 c3 -5 8 -10 11 -10 2 0 4 5 4 10 0 6 -5 10 -11 10 -5 0
-7 -4 -4 -10z"/>
<path d="M7714 7372 c4 -3 14 -7 22 -8 9 -1 13 0 10 4 -4 3 -14 7 -22 8 -9 1
-13 0 -10 -4z"/>
<path d="M7653 7335 c0 -8 4 -12 9 -9 5 3 6 10 3 15 -9 13 -12 11 -12 -6z"/>
<path d="M7106 7312 c-3 -5 1 -9 9 -9 8 0 12 4 9 9 -3 4 -7 8 -9 8 -2 0 -6 -4
-9 -8z"/>
<path d="M8686 7228 c3 -5 10 -6 15 -3 13 9 11 12 -6 12 -8 0 -12 -4 -9 -9z"/>
<path d="M7566 7212 c-3 -5 1 -9 9 -9 8 0 12 4 9 9 -3 4 -7 8 -9 8 -2 0 -6 -4
-9 -8z"/>
<path d="M9666 7148 c3 -5 10 -6 15 -3 13 9 11 12 -6 12 -8 0 -12 -4 -9 -9z"/>
<path d="M10473 7145 c0 -8 4 -12 9 -9 5 3 6 10 3 15 -9 13 -12 11 -12 -6z"/>
<path d="M9439 7148 c-5 -18 -6 -38 -1 -34 7 8 12 36 6 36 -2 0 -4 -1 -5 -2z"/>
<path d="M7526 7132 c-3 -5 1 -9 9 -9 8 0 12 4 9 9 -3 4 -7 8 -9 8 -2 0 -6 -4
-9 -8z"/>
<path d="M7506 7068 c3 -5 10 -6 15 -3 13 9 11 12 -6 12 -8 0 -12 -4 -9 -9z"/>
<path d="M9434 7016 c1 -8 5 -18 8 -22 4 -3 5 1 4 10 -1 8 -5 18 -8 22 -4 3
-5 -1 -4 -10z"/>
<path d="M1993 6995 c0 -8 4 -12 9 -9 5 3 6 10 3 15 -9 13 -12 11 -12 -6z"/>
<path d="M10473 6995 c0 -8 4 -12 9 -9 5 3 6 10 3 15 -9 13 -12 11 -12 -6z"/>
<path d="M10715 6701 c-3 -5 -2 -12 3 -15 5 -3 9 1 9 9 0 17 -3 19 -12 6z"/>
<path d="M8870 6670 c0 -5 5 -10 11 -10 5 0 7 5 4 10 -3 6 -8 10 -11 10 -2 0
-4 -4 -4 -10z"/>
<path d="M9356 6672 c-3 -5 1 -9 9 -9 8 0 12 4 9 9 -3 4 -7 8 -9 8 -2 0 -6 -4
-9 -8z"/>
<path d="M10073 6645 c0 -8 4 -12 9 -9 5 3 6 10 3 15 -9 13 -12 11 -12 -6z"/>
<path d="M1193 6515 c0 -8 4 -12 9 -9 5 3 6 10 3 15 -9 13 -12 11 -12 -6z"/>
<path d="M9836 6508 c3 -5 10 -6 15 -3 13 9 11 12 -6 12 -8 0 -12 -4 -9 -9z"/>
<path d="M10953 6505 c0 -8 4 -12 9 -9 5 3 6 10 3 15 -9 13 -12 11 -12 -6z"/>
<path d="M387 6429 c7 -7 15 -10 18 -7 3 3 -2 9 -12 12 -14 6 -15 5 -6 -5z"/>
<path d="M1035 6351 c-3 -5 -2 -12 3 -15 5 -3 9 1 9 9 0 17 -3 19 -12 6z"/>
<path d="M7436 6348 c3 -5 10 -6 15 -3 13 9 11 12 -6 12 -8 0 -12 -4 -9 -9z"/>
<path d="M10176 6272 c-3 -5 1 -9 9 -9 8 0 12 4 9 9 -3 4 -7 8 -9 8 -2 0 -6
-4 -9 -8z"/>
<path d="M9139 6238 c-5 -18 -6 -38 -1 -34 7 8 12 36 6 36 -2 0 -4 -1 -5 -2z"/>
<path d="M10395 6221 c-3 -5 -2 -12 3 -15 5 -3 9 1 9 9 0 17 -3 19 -12 6z"/>
<path d="M9513 6185 c0 -8 4 -12 9 -9 5 3 6 10 3 15 -9 13 -12 11 -12 -6z"/>
<path d="M11106 6188 c3 -5 10 -6 15 -3 13 9 11 12 -6 12 -8 0 -12 -4 -9 -9z"/>
<path d="M1166 6108 c3 -5 10 -6 15 -3 13 9 11 12 -6 12 -8 0 -12 -4 -9 -9z"/>
<path d="M555 6041 c-3 -5 -2 -12 3 -15 5 -3 9 1 9 9 0 17 -3 19 -12 6z"/>
<path d="M9993 6035 c0 -8 4 -12 9 -9 5 3 6 10 3 15 -9 13 -12 11 -12 -6z"/>
<path d="M866 6032 c-3 -5 1 -9 9 -9 8 0 12 4 9 9 -3 4 -7 8 -9 8 -2 0 -6 -4
-9 -8z"/>
<path d="M10316 6028 c3 -5 10 -6 15 -3 13 9 11 12 -6 12 -8 0 -12 -4 -9 -9z"/>
<path d="M635 5901 c-3 -5 -2 -12 3 -15 5 -3 9 1 9 9 0 17 -3 19 -12 6z"/>
<path d="M9326 5888 c3 -5 10 -6 15 -3 13 9 11 12 -6 12 -8 0 -12 -4 -9 -9z"/>
<path d="M1195 5871 c-3 -5 -2 -12 3 -15 5 -3 9 1 9 9 0 17 -3 19 -12 6z"/>
<path d="M7945 5790 c-3 -6 1 -7 9 -4 18 7 21 14 7 14 -6 0 -13 -4 -16 -10z"/>
<path d="M8070 5789 c0 -5 5 -7 10 -4 6 3 10 8 10 11 0 2 -4 4 -10 4 -5 0 -10
-5 -10 -11z"/>
<path d="M156 5703 c-6 -14 -5 -15 5 -6 7 7 10 15 7 18 -3 3 -9 -2 -12 -12z"/>
<path d="M716 5708 c3 -5 10 -6 15 -3 13 9 11 12 -6 12 -8 0 -12 -4 -9 -9z"/>
<path d="M9836 5712 c-3 -5 1 -9 9 -9 8 0 12 4 9 9 -3 4 -7 8 -9 8 -2 0 -6 -4
-9 -8z"/>
<path d="M11275 5711 c-3 -5 -2 -12 3 -15 5 -3 9 1 9 9 0 17 -3 19 -12 6z"/>
<path d="M9536 5688 c3 -5 10 -6 15 -3 13 9 11 12 -6 12 -8 0 -12 -4 -9 -9z"/>
<path d="M1515 5561 c-3 -5 -2 -12 3 -15 5 -3 9 1 9 9 0 17 -3 19 -12 6z"/>
<path d="M10316 5552 c-3 -5 1 -9 9 -9 8 0 12 4 9 9 -3 4 -7 8 -9 8 -2 0 -6
-4 -9 -8z"/>
<path d="M9650 5489 c0 -5 5 -7 10 -4 6 3 10 8 10 11 0 2 -4 4 -10 4 -5 0 -10
-5 -10 -11z"/>
<path d="M630 5391 c0 -6 4 -13 10 -16 6 -3 7 1 4 9 -7 18 -14 21 -14 7z"/>
<path d="M1515 5391 c-3 -5 -2 -12 3 -15 5 -3 9 1 9 9 0 17 -3 19 -12 6z"/>
<path d="M576 5312 c-3 -5 1 -9 9 -9 8 0 12 4 9 9 -3 4 -7 8 -9 8 -2 0 -6 -4
-9 -8z"/>
<path d="M9806 5312 c-3 -5 1 -9 9 -9 8 0 12 4 9 9 -3 4 -7 8 -9 8 -2 0 -6 -4
-9 -8z"/>
<path d="M236 5232 c-3 -5 1 -9 9 -9 8 0 12 4 9 9 -3 4 -7 8 -9 8 -2 0 -6 -4
-9 -8z"/>
<path d="M1910 5231 c0 -6 4 -13 10 -16 6 -3 7 1 4 9 -7 18 -14 21 -14 7z"/>
<path d="M9695 5230 c-3 -5 -1 -10 4 -10 6 0 11 5 11 10 0 6 -2 10 -4 10 -3 0
-8 -4 -11 -10z"/>
<path d="M10626 5232 c-3 -5 1 -9 9 -9 8 0 12 4 9 9 -3 4 -7 8 -9 8 -2 0 -6
-4 -9 -8z"/>
<path d="M553 5075 c0 -8 4 -12 9 -9 5 3 6 10 3 15 -9 13 -12 11 -12 -6z"/>
<path d="M1995 5081 c-3 -5 -2 -12 3 -15 5 -3 9 1 9 9 0 17 -3 19 -12 6z"/>
<path d="M10146 5072 c-3 -5 1 -9 9 -9 8 0 12 4 9 9 -3 4 -7 8 -9 8 -2 0 -6
-4 -9 -8z"/>
<path d="M10626 5068 c3 -5 10 -6 15 -3 13 9 11 12 -6 12 -8 0 -12 -4 -9 -9z"/>
<path d="M1186 4912 c-3 -5 1 -9 9 -9 8 0 12 4 9 9 -3 4 -7 8 -9 8 -2 0 -6 -4
-9 -8z"/>
<path d="M2475 4911 c-3 -5 -2 -12 3 -15 5 -3 9 1 9 9 0 17 -3 19 -12 6z"/>
<path d="M9667 4829 c7 -7 15 -10 18 -7 3 3 -2 9 -12 12 -14 6 -15 5 -6 -5z"/>
<path d="M10316 4748 c3 -5 10 -6 15 -3 13 9 11 12 -6 12 -8 0 -12 -4 -9 -9z"/>
<path d="M1113 4725 c0 -8 4 -12 9 -9 5 3 6 10 3 15 -9 13 -12 11 -12 -6z"/>
<path d="M2899 4678 c-5 -18 -6 -38 -1 -34 7 8 12 36 6 36 -2 0 -4 -1 -5 -2z"/>
<path d="M9410 4671 c0 -6 4 -13 10 -16 6 -3 7 1 4 9 -7 18 -14 21 -14 7z"/>
<path d="M2153 4595 c0 -8 4 -12 9 -9 5 3 6 10 3 15 -9 13 -12 11 -12 -6z"/>
<path d="M2795 4601 c-3 -5 -2 -12 3 -15 5 -3 9 1 9 9 0 17 -3 19 -12 6z"/>
<path d="M11275 4601 c-3 -5 -2 -12 3 -15 5 -3 9 1 9 9 0 17 -3 19 -12 6z"/>
<path d="M876 4588 c3 -5 10 -6 15 -3 13 9 11 12 -6 12 -8 0 -12 -4 -9 -9z"/>
<path d="M1666 4588 c3 -5 10 -6 15 -3 13 9 11 12 -6 12 -8 0 -12 -4 -9 -9z"/>
<path d="M9993 4585 c0 -8 4 -12 9 -9 5 3 6 10 3 15 -9 13 -12 11 -12 -6z"/>
<path d="M10796 4588 c3 -5 10 -6 15 -3 13 9 11 12 -6 12 -8 0 -12 -4 -9 -9z"/>
<path d="M2395 4571 c-3 -5 -2 -12 3 -15 5 -3 9 1 9 9 0 17 -3 19 -12 6z"/>
<path d="M2986 4508 c3 -5 10 -6 15 -3 13 9 11 12 -6 12 -8 0 -12 -4 -9 -9z"/>
<path d="M1995 4431 c-3 -5 -2 -12 3 -15 5 -3 9 1 9 9 0 17 -3 19 -12 6z"/>
<path d="M11113 4425 c0 -8 4 -12 9 -9 5 3 6 10 3 15 -9 13 -12 11 -12 -6z"/>
<path d="M1326 4352 c-3 -5 1 -9 9 -9 8 0 12 4 9 9 -3 4 -7 8 -9 8 -2 0 -6 -4
-9 -8z"/>
<path d="M1675 4281 c-3 -5 -2 -12 3 -15 5 -3 9 1 9 9 0 17 -3 19 -12 6z"/>
<path d="M9673 4275 c0 -8 4 -12 9 -9 5 3 6 10 3 15 -9 13 -12 11 -12 -6z"/>
<path d="M1186 4272 c-3 -5 1 -9 9 -9 8 0 12 4 9 9 -3 4 -7 8 -9 8 -2 0 -6 -4
-9 -8z"/>
<path d="M2476 4268 c3 -5 10 -6 15 -3 13 9 11 12 -6 12 -8 0 -12 -4 -9 -9z"/>
<path d="M2946 4268 c3 -5 10 -6 15 -3 13 9 11 12 -6 12 -8 0 -12 -4 -9 -9z"/>
<path d="M9516 4272 c-3 -5 1 -9 9 -9 8 0 12 4 9 9 -3 4 -7 8 -9 8 -2 0 -6 -4
-9 -8z"/>
<path d="M10316 4272 c-3 -5 1 -9 9 -9 8 0 12 4 9 9 -3 4 -7 8 -9 8 -2 0 -6
-4 -9 -8z"/>
<path d="M3170 4229 c0 -5 5 -7 10 -4 6 3 10 8 10 11 0 2 -4 4 -10 4 -5 0 -10
-5 -10 -11z"/>
<path d="M10976 4188 c3 -5 10 -6 15 -3 13 9 11 12 -6 12 -8 0 -12 -4 -9 -9z"/>
<path d="M3226 4152 c-3 -5 1 -9 9 -9 8 0 12 4 9 9 -3 4 -7 8 -9 8 -2 0 -6 -4
-9 -8z"/>
<path d="M1515 4121 c-3 -5 -2 -12 3 -15 5 -3 9 1 9 9 0 17 -3 19 -12 6z"/>
<path d="M9673 4105 c0 -8 4 -12 9 -9 5 3 6 10 3 15 -9 13 -12 11 -12 -6z"/>
<path d="M3246 4088 c3 -5 10 -6 15 -3 13 9 11 12 -6 12 -8 0 -12 -4 -9 -9z"/>
<path d="M10395 4091 c-3 -5 -2 -12 3 -15 5 -3 9 1 9 9 0 17 -3 19 -12 6z"/>
<path d="M2176 4032 c-3 -5 1 -9 9 -9 8 0 12 4 9 9 -3 4 -7 8 -9 8 -2 0 -6 -4
-9 -8z"/>
<path d="M1836 3952 c-3 -5 1 -9 9 -9 8 0 12 4 9 9 -3 4 -7 8 -9 8 -2 0 -6 -4
-9 -8z"/>
<path d="M10626 3948 c3 -5 10 -6 15 -3 13 9 11 12 -6 12 -8 0 -12 -4 -9 -9z"/>
<path d="M1766 3872 c-3 -5 1 -9 9 -9 8 0 12 4 9 9 -3 4 -7 8 -9 8 -2 0 -6 -4
-9 -8z"/>
<path d="M9513 3795 c0 -8 4 -12 9 -9 5 3 6 10 3 15 -9 13 -12 11 -12 -6z"/>
<path d="M2466 3792 c-3 -5 1 -9 9 -9 8 0 12 4 9 9 -3 4 -7 8 -9 8 -2 0 -6 -4
-9 -8z"/>
<path d="M3116 3788 c3 -5 10 -6 15 -3 13 9 11 12 -6 12 -8 0 -12 -4 -9 -9z"/>
<path d="M2873 3765 c0 -8 4 -12 9 -9 5 3 6 10 3 15 -9 13 -12 11 -12 -6z"/>
<path d="M10316 3632 c-3 -5 1 -9 9 -9 8 0 12 4 9 9 -3 4 -7 8 -9 8 -2 0 -6
-4 -9 -8z"/>
<path d="M2955 3471 c-3 -5 -2 -12 3 -15 5 -3 9 1 9 9 0 17 -3 19 -12 6z"/>
<path d="M10395 3451 c-3 -5 -2 -12 3 -15 5 -3 9 1 9 9 0 17 -3 19 -12 6z"/>
<path d="M1368 3286 c-18 -25 -40 -44 -48 -43 -9 1 -14 -5 -12 -16 3 -16 0
-17 -18 -7 -12 6 -24 9 -27 6 -3 -3 6 -11 20 -17 24 -11 25 -14 13 -38 -7 -14
-11 -32 -10 -38 1 -7 2 -18 3 -23 1 -11 39 -28 71 -33 25 -4 111 -64 98 -68
-2 -1 -39 -2 -83 -4 -99 -3 -127 -15 -121 -53 3 -15 8 -52 11 -82 3 -30 8 -66
10 -80 7 -45 14 -104 20 -155 3 -27 8 -72 11 -100 4 -27 7 -66 8 -85 1 -33 25
-70 46 -70 6 0 10 -4 10 -8 0 -5 10 -8 23 -7 12 1 26 0 30 -2 17 -10 294 -2
339 9 54 13 65 30 72 108 3 30 9 89 15 130 6 41 13 104 17 140 3 36 7 67 9 70
2 3 7 42 10 86 l7 81 -28 10 c-16 5 -62 9 -101 8 -40 -1 -73 2 -73 6 0 17 71
61 117 72 l48 12 -2 57 c-3 50 -1 56 19 61 12 4 19 9 16 12 -3 4 -16 2 -27 -5
-19 -10 -21 -8 -21 17 0 22 -2 25 -10 13 -9 -13 -14 -11 -30 12 -12 14 -29 36
-38 49 -18 22 -18 22 -14 -14 6 -52 -11 -93 -83 -197 -86 -125 -100 -127 -170
-23 -89 132 -111 185 -94 231 13 33 3 27 -33 -22z"/>
<path d="M9355 3321 c-3 -5 -2 -12 3 -15 5 -3 9 1 9 9 0 17 -3 19 -12 6z"/>
<path d="M9836 3308 c3 -5 10 -6 15 -3 13 9 11 12 -6 12 -8 0 -12 -4 -9 -9z"/>
<path d="M9113 3285 c0 -8 4 -12 9 -9 5 3 6 10 3 15 -9 13 -12 11 -12 -6z"/>
<path d="M3086 3228 c3 -5 10 -6 15 -3 13 9 11 12 -6 12 -8 0 -12 -4 -9 -9z"/>
<path d="M9515 3151 c-3 -5 -2 -12 3 -15 5 -3 9 1 9 9 0 17 -3 19 -12 6z"/>
<path d="M8233 3077 c0 -8 6 -14 14 -14 9 0 10 4 2 14 -6 7 -12 13 -14 13 -1
0 -2 -6 -2 -13z"/>
<path d="M3266 2992 c-3 -5 1 -9 9 -9 8 0 12 4 9 9 -3 4 -7 8 -9 8 -2 0 -6 -4
-9 -8z"/>
<path d="M10809 2982 c-54 -22 -79 -59 -79 -116 0 -40 12 -50 59 -51 25 -1 42
7 65 31 44 45 56 61 59 83 2 10 9 26 16 35 7 8 10 20 6 26 -8 14 -84 9 -126
-8z m107 -7 c-6 -7 -17 -10 -25 -7 -11 4 -13 1 -8 -13 6 -14 5 -16 -6 -7 -8 7
-16 10 -18 8 -2 -2 -11 3 -19 12 -13 14 -12 15 3 9 9 -3 19 -3 21 2 3 4 18 8
34 8 23 0 27 -3 18 -12z m-72 -32 c3 -7 2 -12 -2 -12 -21 3 -32 -2 -26 -13 4
-6 3 -8 -3 -5 -12 7 -27 -19 -25 -43 1 -10 0 -11 -4 -2 -3 6 -10 10 -14 7 -5
-3 -11 -1 -14 4 -4 5 3 12 14 16 11 3 20 12 20 20 0 7 8 16 18 20 16 7 15 8
-3 15 -17 7 -16 8 7 7 15 -1 30 -7 32 -14z m13 -45 c-3 -8 -6 -5 -6 6 -1 11 2
17 5 13 3 -3 4 -12 1 -19z m-31 -24 c1 -9 0 -13 -4 -10 -3 4 -7 14 -8 22 -1 9
0 13 4 10 3 -4 7 -14 8 -22z"/>
<path d="M9404 2844 c-19 -6 -34 -9 -34 -7 0 3 -6 0 -13 -6 -8 -6 -18 -7 -22
-3 -5 4 -5 1 -1 -5 4 -7 2 -13 -4 -13 -13 0 -51 -61 -44 -72 3 -4 1 -8 -5 -8
-6 0 -6 -11 -1 -30 5 -16 5 -30 0 -30 -4 0 -3 -11 3 -24 7 -14 17 -22 26 -18
8 3 30 5 50 5 20 0 42 6 49 13 7 8 21 19 30 26 9 7 23 21 31 31 13 16 13 20 0
28 -11 8 -10 9 5 7 14 -2 23 8 35 42 9 25 19 47 24 48 4 2 7 8 7 13 0 5 -16 1
-35 -8 -25 -12 -38 -14 -46 -6 -7 7 -3 11 16 11 15 0 32 5 38 11 16 16 -59 12
-109 -5z m41 -5 c-4 -6 1 -17 11 -24 18 -14 18 -14 -1 -16 -11 -1 -23 -1 -27
0 -5 0 -8 -3 -8 -8 0 -5 -9 -13 -21 -16 -12 -4 -18 -13 -15 -20 3 -9 0 -12 -9
-9 -13 5 -39 -28 -29 -38 2 -3 -9 -5 -25 -4 -30 1 -30 12 -1 18 24 5 41 31 27
41 -8 6 -6 7 5 3 10 -3 23 2 30 13 7 10 23 21 36 25 12 4 20 12 17 17 -6 9 2
29 11 29 3 0 2 -5 -1 -11z m-71 -37 c2 -4 -5 -9 -17 -9 -17 -2 -19 0 -7 7 18
12 18 12 24 2z m131 -1 c3 -5 2 -12 -3 -15 -5 -3 -9 1 -9 9 0 17 3 19 12 6z
m-105 -106 c0 -5 -5 -3 -10 5 -5 8 -10 20 -10 25 0 6 5 3 10 -5 5 -8 10 -19
10 -25z"/>
<path d="M9035 2841 c-3 -5 -2 -12 3 -15 5 -3 9 1 9 9 0 17 -3 19 -12 6z"/>
<path d="M7886 2748 c3 -5 10 -6 15 -3 13 9 11 12 -6 12 -8 0 -12 -4 -9 -9z"/>
<path d="M7426 2672 c-3 -5 1 -9 9 -9 8 0 12 4 9 9 -3 4 -7 8 -9 8 -2 0 -6 -4
-9 -8z"/>
<path d="M7833 2535 c0 -8 4 -12 9 -9 5 3 6 10 3 15 -9 13 -12 11 -12 -6z"/>
<path d="M8075 2511 c-3 -5 -2 -12 3 -15 5 -3 9 1 9 9 0 17 -3 19 -12 6z"/>
<path d="M7284 2432 c4 -3 14 -7 22 -8 9 -1 13 0 10 4 -4 3 -14 7 -22 8 -9 1
-13 0 -10 -4z"/>
<path d="M6053 2373 c4 -3 1 -13 -6 -22 -11 -14 -10 -14 5 -2 16 12 16 31 1
31 -4 0 -3 -3 0 -7z"/>
<path d="M6953 2355 c0 -8 4 -12 9 -9 5 3 6 10 3 15 -9 13 -12 11 -12 -6z"/>
<path d="M1056 2348 c3 -5 10 -6 15 -3 13 9 11 12 -6 12 -8 0 -12 -4 -9 -9z"/>
<path d="M5886 2312 c-3 -5 1 -9 9 -9 8 0 12 4 9 9 -3 4 -7 8 -9 8 -2 0 -6 -4
-9 -8z"/>
<path d="M6150 2271 c0 -6 4 -13 10 -16 6 -3 7 1 4 9 -7 18 -14 21 -14 7z"/>
<path d="M10088 2224 c-2 -1 -23 -3 -48 -5 -25 -1 -49 -5 -55 -8 -5 -2 -22 -6
-39 -8 -102 -11 -197 -117 -190 -210 1 -13 2 -36 3 -51 2 -47 21 -64 58 -53
18 5 35 6 38 1 7 -11 79 6 83 19 2 6 9 11 15 11 14 1 65 52 95 96 26 38 46 88
32 79 -6 -4 -9 7 -9 27 1 23 3 26 6 11 5 -27 23 -31 23 -5 0 10 7 27 15 38 22
29 20 47 -4 34 -11 -5 -26 -16 -33 -24 -12 -11 -20 -11 -51 3 -47 20 -48 31 0
21 26 -6 45 -5 65 6 15 8 28 16 28 18 0 3 -29 4 -32 0z m-65 -55 c10 -11 23
-121 15 -125 -4 -3 -8 8 -8 25 0 16 -4 41 -10 55 -8 23 -12 25 -35 14 -29 -13
-29 -13 -12 -64 13 -40 15 -80 3 -91 -3 -3 -6 13 -6 36 0 36 -11 72 -26 90 -2
2 -13 -4 -23 -13 -16 -14 -18 -23 -10 -43 6 -16 6 -22 -1 -18 -6 3 -10 13 -10
21 0 12 -4 12 -25 -3 -23 -16 -25 -23 -20 -73 3 -43 3 -48 -4 -22 -11 41 -19
50 -27 28 -3 -9 -10 -16 -15 -16 -6 0 -5 9 1 20 12 23 7 25 -21 10 -12 -7 -19
-7 -19 -1 0 8 29 23 50 26 9 1 50 39 50 46 0 4 -19 5 -42 4 -31 -3 -37 -1 -23
5 11 5 36 9 56 9 22 1 43 8 53 20 17 18 16 19 -23 17 -23 -1 -41 2 -41 7 0 5
24 7 55 5 30 -3 55 -1 55 4 0 4 7 8 16 8 35 0 2 16 -38 19 -23 1 -45 5 -48 8
-3 3 25 3 63 1 37 -3 69 -7 70 -9z m-97 -183 c-1 -49 -11 -52 -13 -5 -2 21 1
39 6 39 5 0 8 -15 7 -34z"/>
<path d="M6075 2181 c-3 -5 -2 -12 3 -15 5 -3 9 1 9 9 0 17 -3 19 -12 6z"/>
</g>
</svg>
